<svg width="76" height="76" viewBox="0 0 76 76" fill="none" xmlns="http://www.w3.org/2000/svg">
<path d="M52.9983 19.1646C53.7081 18.928 54.6545 18.928 55.6009 18.928C62.6988 18.928 68.6138 24.843 68.6138 31.941C68.6138 39.039 62.6988 44.954 55.6009 44.954L56.7838 66.2479H18.9279L20.1109 44.954C13.0129 44.954 7.0979 39.039 7.0979 31.941C7.0979 24.843 13.0129 18.928 20.1109 18.928C21.0573 18.928 22.0037 18.928 22.7135 19.1646" stroke="#FCFCFC" stroke-opacity="0.98" stroke-width="4.732" stroke-miterlimit="10" stroke-linecap="round" stroke-linejoin="round"/>
<path d="M54.4179 26.026C54.4179 16.7986 47.0833 9.46399 37.8559 9.46399C28.6285 9.46399 21.2939 16.7986 21.2939 26.026" stroke="#FCFCFC" stroke-opacity="0.98" stroke-width="4.732" stroke-miterlimit="10" stroke-linecap="round" stroke-linejoin="round"/>
<path d="M37.856 49.6859V56.7839" stroke="#FCFCFC" stroke-opacity="0.98" stroke-width="4.732" stroke-miterlimit="10" stroke-linecap="round" stroke-linejoin="round"/>
<path d="M29.575 49.6859L28.392 56.0741" stroke="#FCFCFC" stroke-opacity="0.98" stroke-width="4.732" stroke-miterlimit="10" stroke-linecap="round" stroke-linejoin="round"/>
<path d="M46.1368 49.6859L47.3198 56.0741" stroke="#FCFCFC" stroke-opacity="0.98" stroke-width="4.732" stroke-miterlimit="10" stroke-linecap="round" stroke-linejoin="round"/>
</svg>
