<svg width="49" height="37" viewBox="0 0 49 37" fill="none" xmlns="http://www.w3.org/2000/svg">
<path d="M3.906 26.48C4.886 26.48 5.68867 26.662 6.314 27.026C6.93933 27.39 7.252 28.048 7.252 29C7.252 29.448 7.14467 29.8307 6.93 30.148C6.71533 30.4653 6.43067 30.7173 6.076 30.904C6.61733 31.0907 7.056 31.38 7.392 31.772C7.73733 32.164 7.91 32.682 7.91 33.326C7.91 34.2967 7.56933 34.9873 6.888 35.398C6.20667 35.7993 5.37133 36 4.382 36H1.4V26.48H3.906ZM3.85 27.418H2.492V30.624H3.794C4.466 30.6147 5.02133 30.498 5.46 30.274C5.89867 30.05 6.118 29.6347 6.118 29.028C6.118 28.3653 5.91267 27.9313 5.502 27.726C5.09133 27.5207 4.54067 27.418 3.85 27.418ZM4.508 31.52H2.492V35.076H4.368C5.04 35.076 5.60933 34.9547 6.076 34.712C6.54267 34.46 6.776 34.0073 6.776 33.354C6.776 32.71 6.57067 32.2433 6.16 31.954C5.74933 31.6647 5.19867 31.52 4.508 31.52ZM15.389 32.78H10.461C10.489 33.4987 10.6803 34.096 11.035 34.572C11.3896 35.0387 11.9496 35.272 12.715 35.272C13.1723 35.272 13.541 35.2253 13.821 35.132C14.1103 35.0293 14.3856 34.9173 14.647 34.796L14.997 35.608C14.7076 35.804 14.3296 35.944 13.863 36.028C13.3963 36.1213 13.023 36.168 12.743 36.168C11.6136 36.168 10.7596 35.8367 10.181 35.174C9.60229 34.502 9.31295 33.6387 9.31295 32.584C9.32229 31.5573 9.59762 30.708 10.139 30.036C10.6896 29.364 11.469 29.028 12.477 29.028C13.5316 29.028 14.2783 29.4013 14.717 30.148C15.165 30.8853 15.389 31.7627 15.389 32.78ZM14.297 32.024C14.2223 31.4173 14.0403 30.9227 13.751 30.54C13.4616 30.1573 13.023 29.966 12.435 29.966C11.847 29.966 11.3896 30.1573 11.063 30.54C10.7456 30.9227 10.5543 31.4173 10.489 32.024H14.297ZM17.1434 36V26.27L18.2494 26.116V29.7C18.5201 29.4947 18.8188 29.3313 19.1454 29.21C19.4721 29.0793 19.7848 29.014 20.0834 29.014C21.0821 29.014 21.8241 29.3547 22.3094 30.036C22.7948 30.7173 23.0374 31.5713 23.0374 32.598C23.0374 33.634 22.7901 34.488 22.2954 35.16C21.8101 35.832 21.0728 36.168 20.0834 36.168C19.7474 36.168 19.4021 36.1027 19.0474 35.972C18.6928 35.832 18.3661 35.6453 18.0674 35.412C18.0301 35.5053 17.9881 35.6033 17.9414 35.706C17.8948 35.8087 17.8481 35.9067 17.8014 36H17.1434ZM18.2494 34.53C18.5108 34.7633 18.7861 34.9407 19.0754 35.062C19.3741 35.1833 19.6541 35.244 19.9154 35.244C20.6434 35.244 21.1614 34.9873 21.4694 34.474C21.7774 33.9607 21.9314 33.34 21.9314 32.612C21.9314 31.856 21.7821 31.226 21.4834 30.722C21.1848 30.2087 20.6621 29.952 19.9154 29.952C19.6541 29.952 19.3741 30.0173 19.0754 30.148C18.7861 30.2693 18.5108 30.4467 18.2494 30.68V34.53ZM25.414 27.866C25.1994 27.866 25.022 27.796 24.882 27.656C24.742 27.5067 24.672 27.3247 24.672 27.11C24.6627 26.9047 24.728 26.732 24.868 26.592C25.0174 26.4427 25.1994 26.368 25.414 26.368C25.6194 26.368 25.7967 26.4427 25.946 26.592C26.1047 26.732 26.184 26.9047 26.184 27.11C26.184 27.3247 26.1047 27.5067 25.946 27.656C25.7967 27.796 25.6194 27.866 25.414 27.866ZM24.868 36V29.21H25.988V36H24.868ZM30.92 29.952C30.1827 29.952 29.66 30.2133 29.352 30.736C29.0533 31.2493 28.904 31.87 28.904 32.598C28.904 33.354 29.0533 33.984 29.352 34.488C29.6507 34.9827 30.1733 35.23 30.92 35.23C31.1813 35.23 31.4613 35.1693 31.76 35.048C32.0587 34.9173 32.3387 34.7353 32.6 34.502V30.694C32.3387 30.4607 32.0587 30.2787 31.76 30.148C31.4613 30.0173 31.1813 29.952 30.92 29.952ZM33.72 26.13V36H33.062L32.768 35.384C32.4787 35.6173 32.1473 35.8087 31.774 35.958C31.41 36.1073 31.06 36.182 30.724 36.182C29.7347 36.182 28.9927 35.846 28.498 35.174C28.0127 34.4927 27.77 33.6387 27.77 32.612C27.77 31.5667 28.0173 30.708 28.512 30.036C29.016 29.3547 29.7627 29.014 30.752 29.014C31.0413 29.014 31.354 29.0793 31.69 29.21C32.026 29.3313 32.3293 29.4947 32.6 29.7V26.256L33.72 26.13ZM36.5719 34.068C36.5719 34.3573 36.6699 34.6327 36.8659 34.894C37.0713 35.1553 37.3979 35.286 37.8459 35.286C38.2379 35.286 38.5973 35.188 38.9239 34.992C39.2506 34.796 39.5306 34.5627 39.7639 34.292V32.738H37.9719C37.5146 32.738 37.1646 32.8733 36.9219 33.144C36.6886 33.4053 36.5719 33.7133 36.5719 34.068ZM35.9839 29.63C36.2453 29.4527 36.6139 29.308 37.0899 29.196C37.5659 29.084 37.9439 29.028 38.2239 29.028C39.0079 29.028 39.6426 29.2427 40.1279 29.672C40.6226 30.092 40.8699 30.6427 40.8699 31.324V36H40.1979L39.9039 35.314C39.6706 35.5287 39.3673 35.7247 38.9939 35.902C38.6206 36.0793 38.2473 36.168 37.8739 36.168C37.0899 36.168 36.5066 35.972 36.1239 35.58C35.7413 35.1787 35.5499 34.6747 35.5499 34.068C35.5499 33.396 35.7739 32.8873 36.2219 32.542C36.6793 32.1873 37.2719 32.01 37.9999 32.01H39.7499C39.7499 31.45 39.6613 30.974 39.4839 30.582C39.3066 30.19 38.9006 29.994 38.2659 29.994C37.8086 29.994 37.4306 30.0453 37.1319 30.148C36.8333 30.2507 36.5579 30.358 36.3059 30.47C36.2593 30.33 36.2079 30.19 36.1519 30.05C36.0959 29.91 36.0399 29.77 35.9839 29.63ZM46.8466 30.442C46.6226 30.33 46.366 30.2227 46.0766 30.12C45.7873 30.0173 45.442 29.966 45.0406 29.966C44.63 29.966 44.2986 30.05 44.0466 30.218C43.804 30.386 43.6826 30.6147 43.6826 30.904C43.6826 31.1653 43.8226 31.3893 44.1026 31.576C44.392 31.7533 44.7606 31.9167 45.2086 32.066C45.7593 32.262 46.2726 32.528 46.7486 32.864C47.234 33.2 47.4766 33.648 47.4766 34.208C47.4766 34.824 47.2433 35.3093 46.7766 35.664C46.3193 36.0093 45.6473 36.182 44.7606 36.182C44.4713 36.182 44.1073 36.1307 43.6686 36.028C43.23 35.9347 42.8706 35.7947 42.5906 35.608L42.9266 34.768C43.188 34.8987 43.4773 35.0107 43.7946 35.104C44.1213 35.1973 44.448 35.244 44.7746 35.244C45.2786 35.244 45.6706 35.1647 45.9506 35.006C46.2306 34.8473 46.3706 34.6047 46.3706 34.278C46.3706 33.9887 46.2166 33.7367 45.9086 33.522C45.6006 33.298 45.218 33.1113 44.7606 32.962C44.2286 32.7847 43.7246 32.542 43.2486 32.234C42.782 31.9167 42.5486 31.492 42.5486 30.96C42.5486 30.3533 42.7726 29.882 43.2206 29.546C43.678 29.2007 44.294 29.028 45.0686 29.028C45.358 29.028 45.7173 29.084 46.1466 29.196C46.576 29.2987 46.9213 29.4433 47.1826 29.63L46.8466 30.442Z" fill="#BABABA"/>
<path fill-rule="evenodd" clip-rule="evenodd" d="M27.9038 0.0150934C27.7171 -0.0421777 27.5213 0.0684007 27.4623 0.264381L25.7164 6.06901H17.7172C17.2788 6.06901 16.9431 6.48151 17.0081 6.94019L19.0516 21.3539C19.1043 21.7253 19.4058 22 19.7607 22H27.6978H28.0563V21.9842C29.066 21.8949 30.018 21.4306 30.7399 20.6668C31.5467 19.8132 32 18.6555 32 17.4483C32 17.2388 31.8395 17.069 31.6415 17.069H29.0641L30.5002 6.94019C30.5652 6.48151 30.2294 6.06901 29.7911 6.06901H26.4689L28.0397 0.846632L31.5416 1.92087C31.7318 1.9792 31.9306 1.86339 31.9857 1.66219C32.0409 1.46099 31.9314 1.2506 31.7413 1.19226L27.9038 0.0150934ZM25.4883 6.82763H17.7172L18.0667 9.29315H24.7468L25.4883 6.82763ZM25.4992 9.29315L26.2408 6.82763H29.7911L29.4415 9.29315H25.4992ZM25.3197 21.2414H19.7607L18.1743 10.0518H29.334L28.3391 17.069H23.7542C23.6591 17.069 23.5679 17.1089 23.5006 17.1801C23.4334 17.2512 23.3956 17.3477 23.3956 17.4483C23.3956 18.6555 23.8489 19.8132 24.6557 20.6668C24.86 20.8829 25.0825 21.075 25.3197 21.2414ZM30.3991 19.9422L28.5253 17.8276H31.265C31.1908 18.6093 30.8886 19.3488 30.3991 19.9422ZM29.876 20.461L28.0563 18.4075V21.2224C28.7185 21.152 29.3486 20.8879 29.876 20.461ZM27.3393 21.2224V18.4075L25.5196 20.461C26.047 20.8879 26.6771 21.152 27.3393 21.2224ZM24.1306 17.8276H26.8703L24.9965 19.9422C24.507 19.3488 24.2049 18.6093 24.1306 17.8276ZM20.0763 11.2227C19.885 11.2769 19.7715 11.4849 19.8228 11.6872L20.3795 13.8856C20.4308 14.0879 20.6274 14.208 20.8186 14.1537L22.8964 13.5647C23.0876 13.5105 23.2011 13.3025 23.1499 13.1001L22.5932 10.9019C22.5419 10.6995 22.3453 10.5794 22.1541 10.6336L20.0763 11.2227ZM20.9793 13.3228L20.6082 11.8573L21.9934 11.4646L22.3645 12.9301L20.9793 13.3228ZM27.452 13.2045C27.5033 13.0021 27.3898 12.7941 27.1985 12.7399L25.1207 12.1509C24.9295 12.0967 24.7329 12.2167 24.6816 12.4191L24.1249 14.6174C24.0736 14.8198 24.1872 15.0278 24.3784 15.0819L26.4562 15.671C26.6475 15.7252 26.844 15.6051 26.8953 15.4028L27.452 13.2045ZM26.6666 13.3745L26.2955 14.84L24.9103 14.4474L25.2814 12.9818L26.6666 13.3745Z" fill="#BABABA"/>
</svg>
