<svg width="55" height="39" viewBox="0 0 55 39" fill="none" xmlns="http://www.w3.org/2000/svg">
<path d="M3.906 28.4251C4.886 28.4251 5.68867 28.6071 6.314 28.9711C6.93933 29.3351 7.252 29.9931 7.252 30.9451C7.252 31.3931 7.14467 31.7758 6.93 32.0931C6.71533 32.4104 6.43067 32.6624 6.076 32.8491C6.61733 33.0358 7.056 33.3251 7.392 33.7171C7.73733 34.1091 7.91 34.6271 7.91 35.2711C7.91 36.2418 7.56933 36.9324 6.888 37.3431C6.20667 37.7444 5.37133 37.9451 4.382 37.9451H1.4V28.4251H3.906ZM3.85 29.3631H2.492V32.5691H3.794C4.466 32.5598 5.02133 32.4431 5.46 32.2191C5.89867 31.9951 6.118 31.5798 6.118 30.9731C6.118 30.3104 5.91267 29.8764 5.502 29.6711C5.09133 29.4658 4.54067 29.3631 3.85 29.3631ZM4.508 33.4651H2.492V37.0211H4.368C5.04 37.0211 5.60933 36.8998 6.076 36.6571C6.54267 36.4051 6.776 35.9524 6.776 35.2991C6.776 34.6551 6.57067 34.1884 6.16 33.8991C5.74933 33.6098 5.19867 33.4651 4.508 33.4651ZM15.389 34.7251H10.461C10.489 35.4438 10.6803 36.0411 11.035 36.5171C11.3896 36.9838 11.9496 37.2171 12.715 37.2171C13.1723 37.2171 13.541 37.1704 13.821 37.0771C14.1103 36.9744 14.3856 36.8624 14.647 36.7411L14.997 37.5531C14.7076 37.7491 14.3296 37.8891 13.863 37.9731C13.3963 38.0664 13.023 38.1131 12.743 38.1131C11.6136 38.1131 10.7596 37.7818 10.181 37.1191C9.60229 36.4471 9.31295 35.5838 9.31295 34.5291C9.32229 33.5024 9.59762 32.6531 10.139 31.9811C10.6896 31.3091 11.469 30.9731 12.477 30.9731C13.5316 30.9731 14.2783 31.3464 14.717 32.0931C15.165 32.8304 15.389 33.7078 15.389 34.7251ZM14.297 33.9691C14.2223 33.3624 14.0403 32.8678 13.751 32.4851C13.4616 32.1024 13.023 31.9111 12.435 31.9111C11.847 31.9111 11.3896 32.1024 11.063 32.4851C10.7456 32.8678 10.5543 33.3624 10.489 33.9691H14.297ZM17.1434 37.9451V28.2151L18.2494 28.0611V31.6451C18.5201 31.4398 18.8188 31.2764 19.1454 31.1551C19.4721 31.0244 19.7848 30.9591 20.0834 30.9591C21.0821 30.9591 21.8241 31.2998 22.3094 31.9811C22.7948 32.6624 23.0374 33.5164 23.0374 34.5431C23.0374 35.5791 22.7901 36.4331 22.2954 37.1051C21.8101 37.7771 21.0728 38.1131 20.0834 38.1131C19.7474 38.1131 19.4021 38.0478 19.0474 37.9171C18.6928 37.7771 18.3661 37.5904 18.0674 37.3571C18.0301 37.4504 17.9881 37.5484 17.9414 37.6511C17.8948 37.7538 17.8481 37.8518 17.8014 37.9451H17.1434ZM18.2494 36.4751C18.5108 36.7084 18.7861 36.8858 19.0754 37.0071C19.3741 37.1284 19.6541 37.1891 19.9154 37.1891C20.6434 37.1891 21.1614 36.9324 21.4694 36.4191C21.7774 35.9058 21.9314 35.2851 21.9314 34.5571C21.9314 33.8011 21.7821 33.1711 21.4834 32.6671C21.1848 32.1538 20.6621 31.8971 19.9154 31.8971C19.6541 31.8971 19.3741 31.9624 19.0754 32.0931C18.7861 32.2144 18.5108 32.3918 18.2494 32.6251V36.4751ZM25.414 29.8111C25.1994 29.8111 25.022 29.7411 24.882 29.6011C24.742 29.4518 24.672 29.2698 24.672 29.0551C24.6627 28.8498 24.728 28.6771 24.868 28.5371C25.0174 28.3878 25.1994 28.3131 25.414 28.3131C25.6194 28.3131 25.7967 28.3878 25.946 28.5371C26.1047 28.6771 26.184 28.8498 26.184 29.0551C26.184 29.2698 26.1047 29.4518 25.946 29.6011C25.7967 29.7411 25.6194 29.8111 25.414 29.8111ZM24.868 37.9451V31.1551H25.988V37.9451H24.868ZM30.92 31.8971C30.1827 31.8971 29.66 32.1584 29.352 32.6811C29.0533 33.1944 28.904 33.8151 28.904 34.5431C28.904 35.2991 29.0533 35.9291 29.352 36.4331C29.6507 36.9278 30.1733 37.1751 30.92 37.1751C31.1813 37.1751 31.4613 37.1144 31.76 36.9931C32.0587 36.8624 32.3387 36.6804 32.6 36.4471V32.6391C32.3387 32.4058 32.0587 32.2238 31.76 32.0931C31.4613 31.9624 31.1813 31.8971 30.92 31.8971ZM33.72 28.0751V37.9451H33.062L32.768 37.3291C32.4787 37.5624 32.1473 37.7538 31.774 37.9031C31.41 38.0524 31.06 38.1271 30.724 38.1271C29.7347 38.1271 28.9927 37.7911 28.498 37.1191C28.0127 36.4378 27.77 35.5838 27.77 34.5571C27.77 33.5118 28.0173 32.6531 28.512 31.9811C29.016 31.2998 29.7627 30.9591 30.752 30.9591C31.0413 30.9591 31.354 31.0244 31.69 31.1551C32.026 31.2764 32.3293 31.4398 32.6 31.6451V28.2011L33.72 28.0751ZM36.5719 36.0131C36.5719 36.3024 36.6699 36.5778 36.8659 36.8391C37.0713 37.1004 37.3979 37.2311 37.8459 37.2311C38.2379 37.2311 38.5973 37.1331 38.9239 36.9371C39.2506 36.7411 39.5306 36.5078 39.7639 36.2371V34.6831H37.9719C37.5146 34.6831 37.1646 34.8184 36.9219 35.0891C36.6886 35.3504 36.5719 35.6584 36.5719 36.0131ZM35.9839 31.5751C36.2453 31.3978 36.6139 31.2531 37.0899 31.1411C37.5659 31.0291 37.9439 30.9731 38.2239 30.9731C39.0079 30.9731 39.6426 31.1878 40.1279 31.6171C40.6226 32.0371 40.8699 32.5878 40.8699 33.2691V37.9451H40.1979L39.9039 37.2591C39.6706 37.4738 39.3673 37.6698 38.9939 37.8471C38.6206 38.0244 38.2473 38.1131 37.8739 38.1131C37.0899 38.1131 36.5066 37.9171 36.1239 37.5251C35.7413 37.1238 35.5499 36.6198 35.5499 36.0131C35.5499 35.3411 35.7739 34.8324 36.2219 34.4871C36.6793 34.1324 37.2719 33.9551 37.9999 33.9551H39.7499C39.7499 33.3951 39.6613 32.9191 39.4839 32.5271C39.3066 32.1351 38.9006 31.9391 38.2659 31.9391C37.8086 31.9391 37.4306 31.9904 37.1319 32.0931C36.8333 32.1958 36.5579 32.3031 36.3059 32.4151C36.2593 32.2751 36.2079 32.1351 36.1519 31.9951C36.0959 31.8551 36.0399 31.7151 35.9839 31.5751ZM46.8466 32.3871C46.6226 32.2751 46.366 32.1678 46.0766 32.0651C45.7873 31.9624 45.442 31.9111 45.0406 31.9111C44.63 31.9111 44.2986 31.9951 44.0466 32.1631C43.804 32.3311 43.6826 32.5598 43.6826 32.8491C43.6826 33.1104 43.8226 33.3344 44.1026 33.5211C44.392 33.6984 44.7606 33.8618 45.2086 34.0111C45.7593 34.2071 46.2726 34.4731 46.7486 34.8091C47.234 35.1451 47.4766 35.5931 47.4766 36.1531C47.4766 36.7691 47.2433 37.2544 46.7766 37.6091C46.3193 37.9544 45.6473 38.1271 44.7606 38.1271C44.4713 38.1271 44.1073 38.0758 43.6686 37.9731C43.23 37.8798 42.8706 37.7398 42.5906 37.5531L42.9266 36.7131C43.188 36.8438 43.4773 36.9558 43.7946 37.0491C44.1213 37.1424 44.448 37.1891 44.7746 37.1891C45.2786 37.1891 45.6706 37.1098 45.9506 36.9511C46.2306 36.7924 46.3706 36.5498 46.3706 36.2231C46.3706 35.9338 46.2166 35.6818 45.9086 35.4671C45.6006 35.2431 45.218 35.0564 44.7606 34.9071C44.2286 34.7298 43.7246 34.4871 43.2486 34.1791C42.782 33.8618 42.5486 33.4371 42.5486 32.9051C42.5486 32.2984 42.7726 31.8271 43.2206 31.4911C43.678 31.1458 44.294 30.9731 45.0686 30.9731C45.358 30.9731 45.7173 31.0291 46.1466 31.1411C46.576 31.2438 46.9213 31.3884 47.1826 31.5751L46.8466 32.3871Z" fill="#FD8061"/>
<path fill-rule="evenodd" clip-rule="evenodd" d="M28.3576 0.0150934C28.146 -0.0421777 27.9241 0.0684007 27.8573 0.264381L25.8786 6.06901H16.8128C16.316 6.06901 15.9355 6.48151 16.0092 6.94019L18.3252 21.3539C18.3848 21.7253 18.7265 22 19.1288 22H28.1242H28.5305V21.9842C29.6748 21.8949 30.7537 21.4306 31.5719 20.6668C32.4863 19.8132 33 18.6555 33 17.4483C33 17.2388 32.8181 17.069 32.5936 17.069H29.6727L31.3002 6.94019C31.3739 6.48151 30.9934 6.06901 30.4965 6.06901H26.7314L28.5116 0.846632L32.4804 1.92087C32.696 1.9792 32.9213 1.86339 32.9838 1.66219C33.0463 1.46099 32.9223 1.2506 32.7068 1.19226L28.3576 0.0150934ZM25.6201 6.82763H16.8128L17.2089 9.29315H24.7797L25.6201 6.82763ZM25.6324 9.29315L26.4729 6.82763H30.4965L30.1004 9.29315H25.6324ZM25.4289 21.2414H19.1288L17.3308 10.0518H29.9785L28.851 17.069H23.6547C23.5469 17.069 23.4436 17.1089 23.3674 17.1801C23.2912 17.2512 23.2484 17.3477 23.2484 17.4483C23.2484 18.6555 23.7621 19.8132 24.6765 20.6668C24.9079 20.8829 25.1602 21.075 25.4289 21.2414ZM31.1857 19.9422L29.062 17.8276H32.167C32.0829 18.6093 31.7404 19.3488 31.1857 19.9422ZM30.5928 20.461L28.5305 18.4075V21.2224C29.281 21.152 29.9951 20.8879 30.5928 20.461ZM27.7179 21.2224V18.4075L25.6556 20.461C26.2533 20.8879 26.9674 21.152 27.7179 21.2224ZM24.0814 17.8276H27.1863L25.0628 19.9422C24.508 19.3488 24.1655 18.6093 24.0814 17.8276ZM19.4865 11.2227C19.2697 11.2769 19.1411 11.4849 19.1991 11.6872L19.8302 13.8856C19.8882 14.0879 20.111 14.208 20.3277 14.1537L22.6826 13.5647C22.8993 13.5105 23.028 13.3025 22.9699 13.1001L22.3389 10.9019C22.2809 10.6995 22.058 10.5794 21.8413 10.6336L19.4865 11.2227ZM20.5099 13.3228L20.0893 11.8573L21.6591 11.4646L22.0798 12.9301L20.5099 13.3228ZM27.8456 13.2045C27.9037 13.0021 27.7751 12.7941 27.5583 12.7399L25.2035 12.1509C24.9867 12.0967 24.764 12.2167 24.7059 12.4191L24.0749 14.6174C24.0168 14.8198 24.1454 15.0278 24.3622 15.0819L26.717 15.671C26.9338 15.7252 27.1566 15.6051 27.2147 15.4028L27.8456 13.2045ZM26.9555 13.3745L26.5349 14.84L24.965 14.4474L25.3856 12.9818L26.9555 13.3745Z" fill="#FD8061"/>
</svg>
