<svg width="49" height="39" viewBox="0 0 49 39" fill="none" xmlns="http://www.w3.org/2000/svg">
<path d="M3.906 28.48C4.886 28.48 5.68867 28.662 6.314 29.026C6.93933 29.39 7.252 30.048 7.252 31C7.252 31.448 7.14467 31.8307 6.93 32.148C6.71533 32.4653 6.43067 32.7173 6.076 32.904C6.61733 33.0907 7.056 33.38 7.392 33.772C7.73733 34.164 7.91 34.682 7.91 35.326C7.91 36.2967 7.56933 36.9873 6.888 37.398C6.20667 37.7993 5.37133 38 4.382 38H1.4V28.48H3.906ZM3.85 29.418H2.492V32.624H3.794C4.466 32.6147 5.02133 32.498 5.46 32.274C5.89867 32.05 6.118 31.6347 6.118 31.028C6.118 30.3653 5.91267 29.9313 5.502 29.726C5.09133 29.5207 4.54067 29.418 3.85 29.418ZM4.508 33.52H2.492V37.076H4.368C5.04 37.076 5.60933 36.9547 6.076 36.712C6.54267 36.46 6.776 36.0073 6.776 35.354C6.776 34.71 6.57067 34.2433 6.16 33.954C5.74933 33.6647 5.19867 33.52 4.508 33.52ZM15.389 34.78H10.461C10.489 35.4987 10.6803 36.096 11.035 36.572C11.3896 37.0387 11.9496 37.272 12.715 37.272C13.1723 37.272 13.541 37.2253 13.821 37.132C14.1103 37.0293 14.3856 36.9173 14.647 36.796L14.997 37.608C14.7076 37.804 14.3296 37.944 13.863 38.028C13.3963 38.1213 13.023 38.168 12.743 38.168C11.6136 38.168 10.7596 37.8367 10.181 37.174C9.60229 36.502 9.31295 35.6387 9.31295 34.584C9.32229 33.5573 9.59762 32.708 10.139 32.036C10.6896 31.364 11.469 31.028 12.477 31.028C13.5316 31.028 14.2783 31.4013 14.717 32.148C15.165 32.8853 15.389 33.7627 15.389 34.78ZM14.297 34.024C14.2223 33.4173 14.0403 32.9227 13.751 32.54C13.4616 32.1573 13.023 31.966 12.435 31.966C11.847 31.966 11.3896 32.1573 11.063 32.54C10.7456 32.9227 10.5543 33.4173 10.489 34.024H14.297ZM17.1434 38V28.27L18.2494 28.116V31.7C18.5201 31.4947 18.8188 31.3313 19.1454 31.21C19.4721 31.0793 19.7848 31.014 20.0834 31.014C21.0821 31.014 21.8241 31.3547 22.3094 32.036C22.7948 32.7173 23.0374 33.5713 23.0374 34.598C23.0374 35.634 22.7901 36.488 22.2954 37.16C21.8101 37.832 21.0728 38.168 20.0834 38.168C19.7474 38.168 19.4021 38.1027 19.0474 37.972C18.6928 37.832 18.3661 37.6453 18.0674 37.412C18.0301 37.5053 17.9881 37.6033 17.9414 37.706C17.8948 37.8087 17.8481 37.9067 17.8014 38H17.1434ZM18.2494 36.53C18.5108 36.7633 18.7861 36.9407 19.0754 37.062C19.3741 37.1833 19.6541 37.244 19.9154 37.244C20.6434 37.244 21.1614 36.9873 21.4694 36.474C21.7774 35.9607 21.9314 35.34 21.9314 34.612C21.9314 33.856 21.7821 33.226 21.4834 32.722C21.1848 32.2087 20.6621 31.952 19.9154 31.952C19.6541 31.952 19.3741 32.0173 19.0754 32.148C18.7861 32.2693 18.5108 32.4467 18.2494 32.68V36.53ZM25.414 29.866C25.1994 29.866 25.022 29.796 24.882 29.656C24.742 29.5067 24.672 29.3247 24.672 29.11C24.6627 28.9047 24.728 28.732 24.868 28.592C25.0174 28.4427 25.1994 28.368 25.414 28.368C25.6194 28.368 25.7967 28.4427 25.946 28.592C26.1047 28.732 26.184 28.9047 26.184 29.11C26.184 29.3247 26.1047 29.5067 25.946 29.656C25.7967 29.796 25.6194 29.866 25.414 29.866ZM24.868 38V31.21H25.988V38H24.868ZM30.92 31.952C30.1827 31.952 29.66 32.2133 29.352 32.736C29.0533 33.2493 28.904 33.87 28.904 34.598C28.904 35.354 29.0533 35.984 29.352 36.488C29.6507 36.9827 30.1733 37.23 30.92 37.23C31.1813 37.23 31.4613 37.1693 31.76 37.048C32.0587 36.9173 32.3387 36.7353 32.6 36.502V32.694C32.3387 32.4607 32.0587 32.2787 31.76 32.148C31.4613 32.0173 31.1813 31.952 30.92 31.952ZM33.72 28.13V38H33.062L32.768 37.384C32.4787 37.6173 32.1473 37.8087 31.774 37.958C31.41 38.1073 31.06 38.182 30.724 38.182C29.7347 38.182 28.9927 37.846 28.498 37.174C28.0127 36.4927 27.77 35.6387 27.77 34.612C27.77 33.5667 28.0173 32.708 28.512 32.036C29.016 31.3547 29.7627 31.014 30.752 31.014C31.0413 31.014 31.354 31.0793 31.69 31.21C32.026 31.3313 32.3293 31.4947 32.6 31.7V28.256L33.72 28.13ZM36.5719 36.068C36.5719 36.3573 36.6699 36.6327 36.8659 36.894C37.0713 37.1553 37.3979 37.286 37.8459 37.286C38.2379 37.286 38.5973 37.188 38.9239 36.992C39.2506 36.796 39.5306 36.5627 39.7639 36.292V34.738H37.9719C37.5146 34.738 37.1646 34.8733 36.9219 35.144C36.6886 35.4053 36.5719 35.7133 36.5719 36.068ZM35.9839 31.63C36.2453 31.4527 36.6139 31.308 37.0899 31.196C37.5659 31.084 37.9439 31.028 38.2239 31.028C39.0079 31.028 39.6426 31.2427 40.1279 31.672C40.6226 32.092 40.8699 32.6427 40.8699 33.324V38H40.1979L39.9039 37.314C39.6706 37.5287 39.3673 37.7247 38.9939 37.902C38.6206 38.0793 38.2473 38.168 37.8739 38.168C37.0899 38.168 36.5066 37.972 36.1239 37.58C35.7413 37.1787 35.5499 36.6747 35.5499 36.068C35.5499 35.396 35.7739 34.8873 36.2219 34.542C36.6793 34.1873 37.2719 34.01 37.9999 34.01H39.7499C39.7499 33.45 39.6613 32.974 39.4839 32.582C39.3066 32.19 38.9006 31.994 38.2659 31.994C37.8086 31.994 37.4306 32.0453 37.1319 32.148C36.8333 32.2507 36.5579 32.358 36.3059 32.47C36.2593 32.33 36.2079 32.19 36.1519 32.05C36.0959 31.91 36.0399 31.77 35.9839 31.63ZM46.8466 32.442C46.6226 32.33 46.366 32.2227 46.0766 32.12C45.7873 32.0173 45.442 31.966 45.0406 31.966C44.63 31.966 44.2986 32.05 44.0466 32.218C43.804 32.386 43.6826 32.6147 43.6826 32.904C43.6826 33.1653 43.8226 33.3893 44.1026 33.576C44.392 33.7533 44.7606 33.9167 45.2086 34.066C45.7593 34.262 46.2726 34.528 46.7486 34.864C47.234 35.2 47.4766 35.648 47.4766 36.208C47.4766 36.824 47.2433 37.3093 46.7766 37.664C46.3193 38.0093 45.6473 38.182 44.7606 38.182C44.4713 38.182 44.1073 38.1307 43.6686 38.028C43.23 37.9347 42.8706 37.7947 42.5906 37.608L42.9266 36.768C43.188 36.8987 43.4773 37.0107 43.7946 37.104C44.1213 37.1973 44.448 37.244 44.7746 37.244C45.2786 37.244 45.6706 37.1647 45.9506 37.006C46.2306 36.8473 46.3706 36.6047 46.3706 36.278C46.3706 35.9887 46.2166 35.7367 45.9086 35.522C45.6006 35.298 45.218 35.1113 44.7606 34.962C44.2286 34.7847 43.7246 34.542 43.2486 34.234C42.782 33.9167 42.5486 33.492 42.5486 32.96C42.5486 32.3533 42.7726 31.882 43.2206 31.546C43.678 31.2007 44.294 31.028 45.0686 31.028C45.358 31.028 45.7173 31.084 46.1466 31.196C46.576 31.2987 46.9213 31.4433 47.1826 31.63L46.8466 32.442Z" fill="#FD8061"/>
<path fill-rule="evenodd" clip-rule="evenodd" d="M28.3576 0.0150934C28.146 -0.0421777 27.9241 0.0684007 27.8573 0.264381L25.8786 6.06901H16.8128C16.316 6.06901 15.9355 6.48151 16.0092 6.94019L18.3252 21.3539C18.3848 21.7253 18.7265 22 19.1288 22H28.1242H28.5305V21.9842C29.6748 21.8949 30.7537 21.4306 31.5719 20.6668C32.4863 19.8132 33 18.6555 33 17.4483C33 17.2388 32.8181 17.069 32.5936 17.069H29.6727L31.3002 6.94019C31.3739 6.48151 30.9934 6.06901 30.4965 6.06901H26.7314L28.5116 0.846632L32.4804 1.92087C32.696 1.9792 32.9213 1.86339 32.9838 1.66219C33.0463 1.46099 32.9223 1.2506 32.7068 1.19226L28.3576 0.0150934ZM25.6201 6.82763H16.8128L17.2089 9.29315H24.7797L25.6201 6.82763ZM25.6324 9.29315L26.4729 6.82763H30.4965L30.1004 9.29315H25.6324ZM25.4289 21.2414H19.1288L17.3308 10.0518H29.9785L28.851 17.069H23.6547C23.5469 17.069 23.4436 17.1089 23.3674 17.1801C23.2912 17.2512 23.2484 17.3477 23.2484 17.4483C23.2484 18.6555 23.7621 19.8132 24.6765 20.6668C24.9079 20.8829 25.1602 21.075 25.4289 21.2414ZM31.1857 19.9422L29.062 17.8276H32.167C32.0829 18.6093 31.7404 19.3488 31.1857 19.9422ZM30.5928 20.461L28.5305 18.4075V21.2224C29.281 21.152 29.9951 20.8879 30.5928 20.461ZM27.7179 21.2224V18.4075L25.6556 20.461C26.2533 20.8879 26.9674 21.152 27.7179 21.2224ZM24.0814 17.8276H27.1863L25.0628 19.9422C24.508 19.3488 24.1655 18.6093 24.0814 17.8276ZM19.4865 11.2227C19.2697 11.2769 19.1411 11.4849 19.1991 11.6872L19.8302 13.8856C19.8882 14.0879 20.111 14.208 20.3277 14.1537L22.6826 13.5647C22.8993 13.5105 23.028 13.3025 22.9699 13.1001L22.3389 10.9019C22.2809 10.6995 22.058 10.5794 21.8413 10.6336L19.4865 11.2227ZM20.5099 13.3228L20.0893 11.8573L21.6591 11.4646L22.0798 12.9301L20.5099 13.3228ZM27.8456 13.2045C27.9037 13.0021 27.7751 12.7941 27.5583 12.7399L25.2035 12.1509C24.9867 12.0967 24.764 12.2167 24.7059 12.4191L24.0749 14.6174C24.0168 14.8198 24.1454 15.0278 24.3622 15.0819L26.717 15.671C26.9338 15.7252 27.1566 15.6051 27.2147 15.4028L27.8456 13.2045ZM26.9555 13.3745L26.5349 14.84L24.965 14.4474L25.3856 12.9818L26.9555 13.3745Z" fill="#FD8061"/>
</svg>
