<svg width="50" height="43" viewBox="0 0 50 43" fill="none" xmlns="http://www.w3.org/2000/svg">
<path d="M27.3688 4.27508C27.6186 4.00823 27.785 3.67413 27.8475 3.31391C27.9099 2.9537 27.8657 2.58309 27.7202 2.24769C27.5748 1.91228 27.3345 1.62671 27.0288 1.42611C26.7232 1.22551 26.3656 1.11864 26 1.11864C25.6344 1.11864 25.2768 1.22551 24.9712 1.42611C24.6656 1.62671 24.4252 1.91228 24.2798 2.24769C24.1343 2.58309 24.0901 2.9537 24.1526 3.31391C24.215 3.67413 24.3814 4.00823 24.6313 4.27508C22.4142 4.60778 20.3897 5.72397 18.925 7.42122C17.4603 9.11851 16.6523 11.2845 16.6475 13.5263C17.1613 25.9313 34.8388 25.9276 35.3525 13.5263C35.3477 11.2845 34.5398 9.11851 33.075 7.42122C31.6103 5.72397 29.5859 4.60778 27.3688 4.27508ZM26 6.40133C27.8897 6.40133 29.702 7.15201 31.0382 8.48821C32.3744 9.82441 33.125 11.6367 33.125 13.5263C32.75 22.9763 19.25 22.9726 18.875 13.5263C18.875 11.6367 19.6257 9.82441 20.9619 8.48821C22.2981 7.15201 24.1103 6.40133 26 6.40133ZM26 1.8751C26.2984 1.8751 26.5845 1.99363 26.7955 2.20461C27.0065 2.41558 27.125 2.70173 27.125 3.0001C27.125 3.29847 27.0065 3.58462 26.7955 3.79561C26.5845 4.00658 26.2984 4.12508 26 4.12508C25.7016 4.12508 25.4155 4.00658 25.2045 3.79561C24.9935 3.58462 24.875 3.29847 24.875 3.0001C24.875 2.70173 24.9935 2.41558 25.2045 2.20461C25.4155 1.99363 25.7016 1.8751 26 1.8751ZM26 22.1251C14.81 21.6938 14.4988 5.83508 25.625 4.93133V5.68133C23.6021 5.77778 21.6941 6.64985 20.2974 8.11639C18.9007 9.58291 18.1227 11.5311 18.125 13.5563C18.5563 24.0038 33.4438 24.0001 33.875 13.5563C33.8773 11.5311 33.0993 9.58291 31.7026 8.11639C30.3059 6.64985 28.3979 5.77778 26.375 5.68133V4.93133C37.5088 5.83883 37.1788 21.6976 26 22.1251Z" fill="#BABABA"/>
<path d="M22.94 16.9575C22.9888 16.9581 23.0372 16.9492 23.0825 16.9312L27.4363 15.1687L27.4888 15.1387C27.5575 15.0979 27.6114 15.0361 27.6425 14.9625L29.405 10.6087C29.4313 10.5408 29.4371 10.4666 29.4219 10.3954C29.4067 10.3242 29.371 10.259 29.3193 10.2076C29.2676 10.1563 29.202 10.1212 29.1307 10.1065C29.0594 10.0918 28.9853 10.0983 28.9175 10.125C28.9175 10.125 24.56 11.8875 24.5525 11.895C24.4641 11.9345 24.3934 12.0053 24.3538 12.0937L22.595 16.4437C22.5725 16.5004 22.5641 16.5616 22.5706 16.6222C22.577 16.6829 22.5981 16.741 22.6321 16.7916C22.6661 16.8422 22.7119 16.8837 22.7656 16.9126C22.8192 16.9415 22.8791 16.957 22.94 16.9575ZM27.1625 14.1562L25.37 12.375L28.37 11.1562L27.1625 14.1562ZM24.8375 12.8925L26.63 14.685L23.63 15.9037L24.8375 12.8925Z" fill="#BABABA"/>
<path d="M1.386 38.9451V29.4251H6.594C6.61267 29.5651 6.63133 29.7051 6.65 29.8451C6.66867 29.9851 6.692 30.1251 6.72 30.2651H2.492V33.6671H5.236C5.25467 33.8071 5.27333 33.9471 5.292 34.0871C5.31067 34.2271 5.334 34.3671 5.362 34.5071H2.492V38.0771H7L7.126 38.9451H1.386ZM7.7292 38.9451L10.2912 35.5151L7.9392 32.3231L9.0872 32.1551L11.0612 34.8711L13.0912 32.1551H14.2952L11.6912 35.7111L14.0992 38.9451H12.8812L10.9212 36.3551L8.9752 38.9451H7.7292ZM16.7182 37.4751C16.9795 37.7084 17.2549 37.8858 17.5442 38.0071C17.8429 38.1284 18.1229 38.1891 18.3842 38.1891C19.1122 38.1891 19.6302 37.9324 19.9382 37.4191C20.2462 36.9058 20.4002 36.2851 20.4002 35.5571C20.4002 34.8011 20.2509 34.1711 19.9522 33.6671C19.6535 33.1538 19.1309 32.8971 18.3842 32.8971C18.1229 32.8971 17.8429 32.9624 17.5442 33.0931C17.2549 33.2144 16.9795 33.3918 16.7182 33.6251V37.4751ZM15.6122 42.0111V32.1551H16.2702L16.5222 32.7571C16.8115 32.5331 17.1382 32.3464 17.5022 32.1971C17.8755 32.0384 18.2255 31.9591 18.5522 31.9591C19.5509 31.9591 20.2929 32.2998 20.7782 32.9811C21.2635 33.6624 21.5062 34.5164 21.5062 35.5431C21.5062 36.5791 21.2589 37.4331 20.7642 38.1051C20.2789 38.7771 19.5415 39.1131 18.5522 39.1131C18.2535 39.1131 17.9409 39.0571 17.6142 38.9451C17.2875 38.8238 16.9889 38.6604 16.7182 38.4551V41.8571L15.6122 42.0111ZM23.3368 38.9451V29.2151L24.4428 29.0611V38.9451H23.3368ZM29.2624 39.1271C28.2637 39.1178 27.5124 38.7771 27.0084 38.1051C26.5044 37.4331 26.2524 36.5698 26.2524 35.5151C26.2617 34.4884 26.5371 33.6438 27.0784 32.9811C27.6197 32.3184 28.3944 31.9824 29.4024 31.9731C30.4291 31.9731 31.1944 32.3138 31.6984 32.9951C32.2117 33.6764 32.4684 34.5444 32.4684 35.5991C32.4591 36.6351 32.1744 37.4844 31.6144 38.1471C31.0544 38.8004 30.2704 39.1271 29.2624 39.1271ZM31.3624 35.5991C31.3624 34.8244 31.2131 34.1851 30.9144 33.6811C30.6251 33.1771 30.1304 32.9251 29.4304 32.9251C28.7397 32.9251 28.2264 33.1678 27.8904 33.6531C27.5637 34.1291 27.3957 34.7451 27.3864 35.5011C27.3864 36.2944 27.5264 36.9384 27.8064 37.4331C28.0864 37.9278 28.5764 38.1751 29.2764 38.1751C29.9764 38.1751 30.4944 37.9418 30.8304 37.4751C31.1757 37.0084 31.3531 36.3831 31.3624 35.5991ZM34.26 38.9451V32.1551H34.932L35.268 33.1071C35.52 32.8924 35.842 32.6824 36.234 32.4771C36.6353 32.2624 37.018 32.1551 37.382 32.1551C37.4193 32.3044 37.4613 32.4538 37.508 32.6031C37.5546 32.7431 37.6013 32.8878 37.648 33.0371C37.2466 33.0371 36.8406 33.1491 36.43 33.3731C36.0193 33.5878 35.6646 33.8444 35.366 34.1431V38.9451H34.26ZM39.5251 37.0131C39.5251 37.3024 39.6231 37.5778 39.8191 37.8391C40.0244 38.1004 40.3511 38.2311 40.7991 38.2311C41.1911 38.2311 41.5504 38.1331 41.8771 37.9371C42.2037 37.7411 42.4837 37.5078 42.7171 37.2371V35.6831H40.9251C40.4677 35.6831 40.1177 35.8184 39.8751 36.0891C39.6417 36.3504 39.5251 36.6584 39.5251 37.0131ZM38.9371 32.5751C39.1984 32.3978 39.5671 32.2531 40.0431 32.1411C40.5191 32.0291 40.8971 31.9731 41.1771 31.9731C41.9611 31.9731 42.5957 32.1878 43.0811 32.6171C43.5757 33.0371 43.8231 33.5878 43.8231 34.2691V38.9451H43.1511L42.8571 38.2591C42.6237 38.4738 42.3204 38.6698 41.9471 38.8471C41.5737 39.0244 41.2004 39.1131 40.8271 39.1131C40.0431 39.1131 39.4597 38.9171 39.0771 38.5251C38.6944 38.1238 38.5031 37.6198 38.5031 37.0131C38.5031 36.3411 38.7271 35.8324 39.1751 35.4871C39.6324 35.1324 40.2251 34.9551 40.9531 34.9551H42.7031C42.7031 34.3951 42.6144 33.9191 42.4371 33.5271C42.2597 33.1351 41.8537 32.9391 41.2191 32.9391C40.7617 32.9391 40.3837 32.9904 40.0851 33.0931C39.7864 33.1958 39.5111 33.3031 39.2591 33.4151C39.2124 33.2751 39.1611 33.1351 39.1051 32.9951C39.0491 32.8551 38.9931 32.7151 38.9371 32.5751ZM45.9358 38.9451V32.1551H46.6078L46.9438 33.1071C47.1958 32.8924 47.5178 32.6824 47.9098 32.4771C48.3111 32.2624 48.6938 32.1551 49.0578 32.1551C49.0951 32.3044 49.1371 32.4538 49.1838 32.6031C49.2304 32.7431 49.2771 32.8878 49.3238 33.0371C48.9224 33.0371 48.5164 33.1491 48.1058 33.3731C47.6951 33.5878 47.3404 33.8444 47.0418 34.1431V38.9451H45.9358Z" fill="#BABABA"/>
</svg>
