<svg width="156" height="162" viewBox="0 0 156 162" fill="none" xmlns="http://www.w3.org/2000/svg">
<path d="M78.0001 75.2623C78.8975 75.2623 79.625 74.5069 79.625 73.5749C79.625 72.643 78.8975 71.8875 78.0001 71.8875C77.1027 71.8875 76.3752 72.643 76.3752 73.5749C76.3752 74.5069 77.1027 75.2623 78.0001 75.2623Z" fill="#66C6B9"/>
<path d="M30.7154 154.37L30.691 154.26L30.6568 154.153L15.1213 105.437H141.204L125.687 154.095C124.364 157.615 121.642 159.5 118.625 159.5H37.3751C34.1879 159.5 31.4083 157.488 30.7154 154.37Z" stroke="#BABABA" stroke-width="5"/>
<path d="M73.0249 114.75C73.0249 111.653 75.2436 109.488 77.9998 109.488C80.756 109.488 82.9747 111.653 82.9747 114.75V143.1C82.9747 146.196 80.756 148.362 77.9998 148.362C75.2437 148.362 73.0249 146.196 73.0249 143.1V114.75Z" fill="white" stroke="#BABABA" stroke-width="5"/>
<path d="M47.0195 114.502L47.0265 114.524L47.0339 114.545L56.1259 141.184C57.0464 144.085 55.5977 146.972 53.1322 147.825C50.5389 148.723 47.7707 147.394 46.9055 144.699L46.8985 144.677L46.8912 144.655L37.7991 118.016C36.8787 115.115 38.3274 112.229 40.7928 111.375C43.3861 110.477 46.1543 111.807 47.0195 114.502Z" fill="white" stroke="#BABABA" stroke-width="5"/>
<path d="M108.963 114.554L108.972 114.528L108.98 114.501C109.845 111.806 112.613 110.477 115.207 111.375C117.749 112.255 119.075 115.18 118.215 117.636L118.212 117.646L118.209 117.655L109.109 144.318L109.101 144.339L109.094 144.361C108.229 147.056 105.461 148.386 102.867 147.488L102.867 147.488C100.403 146.635 98.9548 143.751 99.8724 140.851L108.963 114.554Z" fill="white" stroke="#BABABA" stroke-width="5"/>
<path d="M108.777 103.958L107.209 102.228L105.376 103.675C97.6729 109.754 88.1389 113.262 78 113.262C67.861 113.262 58.3268 109.754 50.624 103.675L48.7909 102.228L47.2227 103.958C42.4504 109.224 35.6286 112.587 28.275 112.587C14.1438 112.587 2.5 100.634 2.5 85.7248C2.5 70.8158 14.1438 58.8623 28.275 58.8623H28.2807H28.2864H28.2921H28.2978H28.3035H28.3091H28.3148H28.3205H28.3261H28.3318H28.3374H28.343H28.3487H28.3543H28.3599H28.3655H28.3711H28.3767H28.3822H28.3878H28.3934H28.3989H28.4045H28.41H28.4156H28.4211H28.4266H28.4322H28.4377H28.4432H28.4487H28.4542H28.4597H28.4651H28.4706H28.4761H28.4815H28.487H28.4924H28.4979H28.5033H28.5087H28.5142H28.5196H28.525H28.5304H28.5358H28.5412H28.5466H28.552H28.5573H28.5627H28.5681H28.5734H28.5788H28.5841H28.5894H28.5948H28.6001H28.6054H28.6107H28.6161H28.6214H28.6267H28.632H28.6372H28.6425H28.6478H28.6531H28.6583H28.6636H28.6688H28.6741H28.6793H28.6846H28.6898H28.695H28.7003H28.7055H28.7107H28.7159H28.7211H28.7263H28.7315H28.7367H28.7419H28.7471H28.7522H28.7574H28.7626H28.7677H28.7729H28.778H28.7832H28.7883H28.7934H28.7986H28.8037H28.8088H28.8139H28.819H28.8242H28.8293H28.8344H28.8394H28.8445H28.8496H28.8547H28.8598H28.8648H28.8699H28.875H28.88H28.8851H28.8901H28.8952H28.9002H28.9053H28.9103H28.9153H28.9204H28.9254H28.9304H28.9354H28.9404H28.9454H28.9505H28.9555H28.9605H28.9654H28.9704H28.9754H28.9804H28.9854H28.9904H28.9953H29.0003H29.0053H29.0102H29.0152H29.0201H29.0251H29.03H29.035H29.0399H29.0449H29.0498H29.0547H29.0596H29.0646H29.0695H29.0744H29.0793H29.0842H29.0892H29.0941H29.099H29.1039H29.1088H29.1137H29.1186H29.1234H29.1283H29.1332H29.1381H29.143H29.1479H29.1527H29.1576H29.1625H29.1673H29.1722H29.1771H29.1819H29.1868H29.1916H29.1965H29.2013H29.2062H29.211H29.2159H29.2207H29.2256H29.2304H29.2352H29.2401H29.2449H29.2497H29.2545H29.2594H29.2642H29.269H29.2738H29.2786H29.2835H29.2883H29.2931H29.2979H29.3027H29.3075H29.3123H29.3171H29.3219H29.3267H29.3315H29.3363H29.3411H29.3459H29.3507H29.3555H29.3603H29.3651H29.3699H29.3747H29.3794H29.3842H29.389H29.3938H29.3986H29.4033H29.4081H29.4129H29.4177H29.4225H29.4272H29.432H29.4368H29.4416H29.4463H29.4511H29.4559H29.4606H29.4654H29.4702H29.4749H29.4797H29.4845H29.4892H29.494H29.4988H29.5035H29.5083H29.5131H29.5178H29.5226H29.5273H29.5321H29.5369H29.5416H29.5464H29.5511H29.5559H29.5607H29.5654H29.5702H29.5749H29.5797H29.5845H29.5892H29.594H29.5988H29.6035H29.6083H29.613H29.6178H29.6226H29.6273H29.6321H29.6368H29.6416H29.6464H29.6511H29.6559H29.6607H29.6654H29.6702H29.675H29.6797H29.6845H29.6893H29.694H29.6988H29.7036H29.7083H29.7131H29.7179H29.7227H29.7274H29.7322H29.737H29.7418H29.7466H29.7513H29.7561H29.7609H29.7657H29.7705H29.7752H29.78H29.7848H29.7896H29.7944H29.7992H29.804H29.8088H29.8136H29.8184H29.8232H29.828H29.8328H29.8376H29.8424H29.8472H29.852H29.8568H29.8616H29.8664H29.8713H29.8761H29.8809H29.8857H29.8905H29.8954H29.9002H29.905H29.9098H29.9147H29.9195H29.9243H29.9292H29.934H29.9389H29.9437H29.9486H29.9534H29.9583H29.9631H29.968H29.9728H29.9777H29.9826H29.9874H29.9923H29.9972H30.002H30.0069H30.0118H30.0167H30.0216H30.0265H30.0313H30.0362H30.0411H30.046H30.0509H30.0558H30.0607H30.0657H30.0706H30.0755H30.0804H30.0853H30.0903H30.0952H30.1001H30.105H30.11H30.1149H30.1199H30.1248H30.1298H30.1347H30.1397H30.1446H30.1496H30.1546H30.1595H30.1645H30.1695H30.1745H30.1795H30.1845H30.1894H30.1944H30.1994H30.2045H30.2095H30.2145H30.2195H30.2245H30.2295H30.2346H30.2396H30.2446H30.2497H30.2547H30.2598H30.2648H30.2699H30.2749H30.28H30.285H30.2901H30.2952H30.3003H30.3054H30.3105H30.3155H30.3206H30.3258H30.3309H30.336H30.3411H30.3462H30.3513H30.3565H30.3616H30.3667H30.3719H30.377H30.3822H30.3873H30.3925H30.3977H30.4028H30.408H30.4132H30.4184H30.4236H30.4288H30.434H30.4392H30.4444H30.4496H30.4549H30.4601H30.4653H30.4706H30.4758H30.481H30.4863H30.4916H30.4968H30.5021H30.5074H30.5127H30.5179H30.5232H30.5285H30.5338H30.5392H30.5445H30.5498H30.5551H30.5605H30.5658H30.5711H30.5765H30.5818H30.5872H30.5926H30.5979H30.6033H30.6087H30.6141H30.6195H30.6249H30.6303H30.6357H30.6412H30.6466H30.652H30.6575H30.6629H30.6684H30.6738H30.6793H30.6848H30.6902H30.6957H30.7012H30.7067H30.7122H30.7177H30.7233H30.7288H30.7343H30.7399H30.7454H30.751H30.7565H30.7621H30.7677H30.7732H30.7788H30.7844H30.79H30.7956H30.8012H30.8069H30.8125H30.8181H30.8238H30.8294H30.8351H30.8408H30.8464H30.8521H30.8578H30.8635H30.8692H30.8749H32.9567L33.3336 56.8149C37.3581 34.9546 55.9018 18.3623 78 18.3623C100.098 18.3623 118.642 34.9546 122.666 56.815L123.043 58.8623H125.125H125.131H125.137H125.142H125.148H125.154H125.159H125.165H125.171H125.176H125.182H125.188H125.193H125.199H125.204H125.21H125.216H125.221H125.227H125.232H125.238H125.243H125.249H125.255H125.26H125.266H125.271H125.277H125.282H125.288H125.293H125.299H125.304H125.31H125.315H125.321H125.326H125.332H125.337H125.343H125.348H125.353H125.359H125.364H125.37H125.375H125.381H125.386H125.391H125.397H125.402H125.407H125.413H125.418H125.424H125.429H125.434H125.44H125.445H125.45H125.456H125.461H125.466H125.471H125.477H125.482H125.487H125.493H125.498H125.503H125.508H125.514H125.519H125.524H125.529H125.535H125.54H125.545H125.55H125.556H125.561H125.566H125.571H125.576H125.582H125.587H125.592H125.597H125.602H125.607H125.613H125.618H125.623H125.628H125.633H125.638H125.644H125.649H125.654H125.659H125.664H125.669H125.674H125.679H125.684H125.69H125.695H125.7H125.705H125.71H125.715H125.72H125.725H125.73H125.735H125.74H125.745H125.75H125.755H125.76H125.765H125.77H125.775H125.781H125.786H125.791H125.796H125.801H125.806H125.811H125.816H125.821H125.826H125.831H125.835H125.84H125.845H125.85H125.855H125.86H125.865H125.87H125.875H125.88H125.885H125.89H125.895H125.9H125.905H125.91H125.915H125.92H125.925H125.929H125.934H125.939H125.944H125.949H125.954H125.959H125.964H125.969H125.974H125.978H125.983H125.988H125.993H125.998H126.003H126.008H126.013H126.017H126.022H126.027H126.032H126.037H126.042H126.047H126.051H126.056H126.061H126.066H126.071H126.076H126.08H126.085H126.09H126.095H126.1H126.105H126.109H126.114H126.119H126.124H126.129H126.134H126.138H126.143H126.148H126.153H126.158H126.162H126.167H126.172H126.177H126.182H126.186H126.191H126.196H126.201H126.206H126.21H126.215H126.22H126.225H126.23H126.234H126.239H126.244H126.249H126.253H126.258H126.263H126.268H126.273H126.277H126.282H126.287H126.292H126.296H126.301H126.306H126.311H126.316H126.32H126.325H126.33H126.335H126.339H126.344H126.349H126.354H126.358H126.363H126.368H126.373H126.377H126.382H126.387H126.392H126.396H126.401H126.406H126.411H126.416H126.42H126.425H126.43H126.435H126.439H126.444H126.449H126.454H126.458H126.463H126.468H126.473H126.477H126.482H126.487H126.492H126.496H126.501H126.506H126.511H126.516H126.52H126.525H126.53H126.535H126.539H126.544H126.549H126.554H126.558H126.563H126.568H126.573H126.578H126.582H126.587H126.592H126.597H126.601H126.606H126.611H126.616H126.621H126.625H126.63H126.635H126.64H126.645H126.649H126.654H126.659H126.664H126.668H126.673H126.678H126.683H126.688H126.692H126.697H126.702H126.707H126.712H126.717H126.721H126.726H126.731H126.736H126.741H126.745H126.75H126.755H126.76H126.765H126.77H126.774H126.779H126.784H126.789H126.794H126.799H126.804H126.808H126.813H126.818H126.823H126.828H126.833H126.838H126.842H126.847H126.852H126.857H126.862H126.867H126.872H126.877H126.881H126.886H126.891H126.896H126.901H126.906H126.911H126.916H126.921H126.926H126.931H126.935H126.94H126.945H126.95H126.955H126.96H126.965H126.97H126.975H126.98H126.985H126.99H126.995H127H127.005H127.01H127.015H127.02H127.025H127.03H127.035H127.04H127.045H127.05H127.055H127.06H127.065H127.07H127.075H127.08H127.085H127.09H127.095H127.1H127.105H127.11H127.115H127.12H127.125H127.13H127.135H127.14H127.145H127.15H127.155H127.161H127.166H127.171H127.176H127.181H127.186H127.191H127.196H127.201H127.207H127.212H127.217H127.222H127.227H127.232H127.237H127.243H127.248H127.253H127.258H127.263H127.268H127.274H127.279H127.284H127.289H127.295H127.3H127.305H127.31H127.315H127.321H127.326H127.331H127.336H127.342H127.347H127.352H127.357H127.363H127.368H127.373H127.379H127.384H127.389H127.395H127.4H127.405H127.411H127.416H127.421H127.427H127.432H127.437H127.443H127.448H127.453H127.459H127.464H127.47H127.475H127.48H127.486H127.491H127.497H127.502H127.508H127.513H127.518H127.524H127.529H127.535H127.54H127.546H127.551H127.557H127.562H127.568H127.573H127.579H127.584H127.59H127.596H127.601H127.607H127.612H127.618H127.623H127.629H127.635H127.64H127.646H127.651H127.657H127.663H127.668H127.674H127.68H127.685H127.691H127.697H127.702H127.708H127.714H127.719H127.725C141.856 58.8623 153.5 70.8158 153.5 85.7248C153.5 100.634 141.856 112.587 127.725 112.587C120.371 112.587 113.55 109.224 108.777 103.958Z" fill="#FBFBFB" stroke="#BABABA" stroke-width="5"/>
<path d="M59.1498 94.5001C59.3294 94.5001 59.4749 94.349 59.4749 94.1625C59.4749 93.9761 59.3294 93.8249 59.1498 93.8249C58.9703 93.8249 58.8247 93.9761 58.8247 94.1625C58.8247 94.349 58.9703 94.5001 59.1498 94.5001Z" fill="#8AD7F8"/>
<path d="M75.6283 15.6405L78 22.7555L80.3717 15.6405C82.9803 7.81491 89.8746 2.5 98.1499 2.5C108.381 2.5 117.1 11.4159 117.1 22.275C117.1 35.2697 107.49 47.026 97.1788 55.8094C92.0979 60.1377 87.0045 63.61 83.1755 66.002C81.2636 67.1964 79.6735 68.1173 78.5664 68.737C78.3536 68.8562 78.1587 68.9641 77.9829 69.0607C77.8095 68.9681 77.6176 68.8647 77.4085 68.7508C76.3027 68.1484 74.7141 67.2516 72.8038 66.084C68.9779 63.7457 63.8888 60.3382 58.8123 56.0549C48.5223 47.3726 38.9001 35.614 38.9001 22.275C38.9001 11.3908 47.318 2.5 57.8501 2.5C65.8226 2.5 73.0271 7.83696 75.6283 15.6405Z" fill="#FBFBFB" stroke="#BABABA" stroke-width="5"/>
<path d="M108.225 11.1375C112.125 14.8499 113.75 19.2375 112.125 21.2625C110.5 23.2875 105.95 21.9374 102.05 18.225C98.1499 14.5126 96.525 10.125 98.1499 8.09996C99.7751 6.07496 104.325 7.42507 108.225 11.1375Z" fill="white"/>
</svg>
