<svg width="26" height="20" viewBox="0 0 26 20" fill="none" xmlns="http://www.w3.org/2000/svg">
<path d="M16.2166 13.3479C15.9867 13.3479 15.7662 13.421 15.6036 13.551C15.441 13.6811 15.3497 13.8575 15.3497 14.0414V18.2996L5.52494 16.3346V3.54623L15.3497 1.58128V6.2047C15.3497 6.38863 15.441 6.56503 15.6036 6.69509C15.7662 6.82515 15.9867 6.89821 16.2166 6.89821C16.4465 6.89821 16.667 6.82515 16.8296 6.69509C16.9921 6.56503 17.0835 6.38863 17.0835 6.2047V0.693582C17.0834 0.595211 17.0576 0.497941 17.0078 0.407983C16.9581 0.318025 16.8854 0.237358 16.7945 0.171135C16.6351 0.0586498 16.4291 -0.00233333 16.2166 6.83306e-05H1.1905C0.960584 6.83306e-05 0.740087 0.0731346 0.577514 0.203194C0.414941 0.333253 0.323608 0.50965 0.323608 0.693582V19.1873C0.323608 19.3712 0.414941 19.5476 0.577514 19.6777C0.740087 19.8077 0.960584 19.8808 1.1905 19.8808H16.2166C16.4133 19.8786 16.6033 19.8236 16.7563 19.7247C16.9093 19.6257 17.0164 19.4886 17.0603 19.3352C17.0692 19.2862 17.0692 19.2363 17.0603 19.1873V14.0414C17.0604 13.8606 16.9723 13.687 16.8147 13.5574C16.6571 13.4279 16.4425 13.3527 16.2166 13.3479ZM2.05739 1.38709H9.1601L4.42688 2.31178C4.23506 2.35052 4.06539 2.44024 3.94568 2.56625C3.82598 2.69226 3.76334 2.84707 3.76805 3.00529V16.8756C3.76856 17.0306 3.83359 17.1812 3.95289 17.3034C4.07218 17.4256 4.23895 17.5126 4.42688 17.5506L9.1601 18.4753H2.05739V1.38709Z" fill="#FCFCFC" fill-opacity="0.98"/>
<path d="M25.1167 9.7046C25.0738 9.60991 25.0069 9.52333 24.9202 9.45031L19.794 5.34935C19.71 5.27936 19.6072 5.2256 19.4934 5.19216C19.3633 5.15535 19.2241 5.14393 19.0874 5.15883C18.9507 5.17374 18.8204 5.21454 18.7073 5.27785C18.5943 5.34116 18.5017 5.42514 18.4374 5.52282C18.3731 5.6205 18.3389 5.72904 18.3376 5.83943V9.24688H8.33369C8.10377 9.24688 7.88328 9.31995 7.7207 9.45001C7.55813 9.58007 7.4668 9.75646 7.4668 9.9404C7.4668 10.1243 7.55813 10.3007 7.7207 10.4308C7.88328 10.5608 8.10377 10.6339 8.33369 10.6339H18.3145V14.0414C18.3173 14.1775 18.3698 14.3099 18.4655 14.4225C18.5612 14.535 18.696 14.6228 18.8532 14.6748C19.0104 14.7269 19.1832 14.7411 19.3503 14.7156C19.5175 14.6901 19.6717 14.6261 19.794 14.5314L24.9202 10.4305C25.0338 10.336 25.1124 10.218 25.1471 10.0898C25.1818 9.96165 25.1712 9.82827 25.1167 9.7046Z" fill="#FCFCFC" fill-opacity="0.98"/>
</svg>
