<svg width="289" height="173" viewBox="0 0 289 173" fill="none" xmlns="http://www.w3.org/2000/svg">
<path d="M26.9998 144.499C25.8026 145.482 24.349 146.252 22.6388 146.808C20.9713 147.363 19.2825 147.641 17.5723 147.641C14.665 147.641 12.0783 147.064 9.81227 145.91C7.58901 144.755 5.85743 143.131 4.61754 141.036C3.37764 138.941 2.7577 136.461 2.7577 133.596C2.7577 130.689 3.4204 128.188 4.7458 126.093C6.07121 123.998 7.80278 122.395 9.94053 121.283C12.121 120.129 14.4512 119.551 16.931 119.551C19.1542 119.551 21.0996 119.851 22.767 120.449C24.4772 121.048 25.9523 121.881 27.1922 122.95L23.9855 127.119C23.2587 126.52 22.3395 125.986 21.2278 125.516C20.1162 125.045 18.8763 124.81 17.5082 124.81C15.969 124.81 14.5581 125.195 13.2754 125.965C12.0355 126.734 11.0522 127.782 10.3253 129.107C9.59849 130.432 9.23507 131.929 9.23507 133.596C9.23507 135.221 9.59849 136.696 10.3253 138.021C11.0949 139.347 12.1424 140.394 13.4678 141.164C14.836 141.934 16.3752 142.318 18.0854 142.318C19.197 142.318 20.2231 142.147 21.1637 141.805C22.1471 141.463 23.0022 141.014 23.729 140.458L26.9998 144.499ZM34.5649 147V97.1691H40.914V126.285L40.7857 125.195C41.7263 123.442 43.1159 122.01 44.9543 120.898C46.7928 119.744 48.9947 119.167 51.56 119.167C54.0825 119.167 56.1561 119.915 57.7808 121.411C59.4055 122.865 60.2392 124.789 60.282 127.183V147H53.8046V129.428C53.7619 128.06 53.3557 126.948 52.5861 126.093C51.8165 125.195 50.6194 124.725 48.9947 124.682C46.7287 124.682 44.8261 125.644 43.2869 127.568C41.7905 129.449 41.0423 131.843 41.0423 134.751V147H34.5649ZM83.0215 147.641C79.9431 147.641 77.2923 147.043 75.069 145.846C72.8458 144.606 71.1356 142.917 69.9384 140.779C68.7413 138.599 68.1427 136.14 68.1427 133.404C68.1427 130.753 68.8054 128.359 70.1308 126.221C71.499 124.041 73.3161 122.309 75.5821 121.026C77.8481 119.744 80.3706 119.102 83.1497 119.102C86.7411 119.102 89.7126 120.15 92.0641 122.245C94.4584 124.297 96.0617 127.204 96.8741 130.967L75.0049 138.535L73.4657 134.815L91.038 128.402L89.6912 129.299C89.1782 127.931 88.3658 126.756 87.2542 125.772C86.1426 124.746 84.6248 124.233 82.7008 124.233C80.3065 124.233 78.3398 125.067 76.8006 126.734C75.3042 128.359 74.556 130.454 74.556 133.019C74.556 135.755 75.3683 137.957 76.993 139.625C78.6177 141.292 80.6699 142.126 83.1497 142.126C84.3041 142.126 85.4157 141.934 86.4846 141.549C87.5535 141.121 88.5582 140.565 89.4988 139.881L92.4489 144.691C91.0808 145.589 89.563 146.316 87.8955 146.872C86.2708 147.385 84.6461 147.641 83.0215 147.641ZM106.391 147V125.965H101.837V120.193H106.391V109.226C106.391 105.421 107.289 102.471 109.084 100.376C110.923 98.238 113.595 97.1691 117.101 97.1691C118.041 97.1691 119.068 97.3187 120.179 97.618C121.334 97.8745 122.36 98.3021 123.258 98.9007L120.5 103.582C120.115 103.155 119.666 102.877 119.153 102.749C118.683 102.578 118.212 102.492 117.742 102.492C116.246 102.492 115.049 103.027 114.151 104.095C113.296 105.122 112.868 106.874 112.868 109.354V120.193H121.334V125.965H112.868V147H106.391ZM145.043 147.641C143.076 147.641 141.174 147.214 139.335 146.359C137.54 145.461 136.129 144.242 135.103 142.703L135.487 140.715V159.891H129.01V119.744H134.589L135.487 126.349L134.846 124.49C136.129 122.908 137.732 121.625 139.656 120.642C141.623 119.615 143.825 119.102 146.262 119.102C148.784 119.102 151.05 119.701 153.06 120.898C155.069 122.095 156.651 123.784 157.805 125.965C158.96 128.102 159.537 130.625 159.537 133.532C159.537 136.44 158.896 138.962 157.613 141.1C156.373 143.195 154.663 144.819 152.482 145.974C150.302 147.086 147.822 147.641 145.043 147.641ZM143.76 142.511C145.428 142.511 146.946 142.126 148.314 141.356C149.725 140.587 150.836 139.539 151.649 138.214C152.504 136.846 152.931 135.307 152.931 133.596C152.931 131.843 152.547 130.283 151.777 128.915C151.007 127.546 149.96 126.478 148.634 125.708C147.309 124.938 145.834 124.554 144.209 124.554C141.986 124.554 140.105 125.152 138.566 126.349C137.069 127.546 136.043 129.128 135.487 131.095V135.905C135.829 137.829 136.77 139.411 138.309 140.651C139.848 141.891 141.665 142.511 143.76 142.511ZM179.909 147.641C176.831 147.641 174.18 147.043 171.957 145.846C169.733 144.606 168.023 142.917 166.826 140.779C165.629 138.599 165.03 136.14 165.03 133.404C165.03 130.753 165.693 128.359 167.018 126.221C168.387 124.041 170.204 122.309 172.47 121.026C174.736 119.744 177.258 119.102 180.037 119.102C183.629 119.102 186.6 120.15 188.952 122.245C191.346 124.297 192.949 127.204 193.762 130.967L171.892 138.535L170.353 134.815L187.926 128.402L186.579 129.299C186.066 127.931 185.253 126.756 184.142 125.772C183.03 124.746 181.512 124.233 179.588 124.233C177.194 124.233 175.227 125.067 173.688 126.734C172.192 128.359 171.444 130.454 171.444 133.019C171.444 135.755 172.256 137.957 173.881 139.625C175.505 141.292 177.558 142.126 180.037 142.126C181.192 142.126 182.303 141.934 183.372 141.549C184.441 141.121 185.446 140.565 186.386 139.881L189.337 144.691C187.968 145.589 186.451 146.316 184.783 146.872C183.158 147.385 181.534 147.641 179.909 147.641ZM212 147.641C209.478 147.641 207.212 147.064 205.202 145.91C203.193 144.713 201.611 143.024 200.456 140.843C199.302 138.663 198.725 136.119 198.725 133.212C198.725 130.219 199.345 127.675 200.585 125.58C201.825 123.485 203.492 121.881 205.587 120.77C207.725 119.658 210.119 119.102 212.77 119.102C214.822 119.102 216.768 119.53 218.606 120.385C220.487 121.197 221.962 122.352 223.031 123.848L222.775 126.093V97.1691H229.252V147H222.71V140.587L223.416 142.318C222.133 143.858 220.509 145.14 218.542 146.166C216.618 147.15 214.437 147.641 212 147.641ZM213.988 142.19C216.254 142.19 218.136 141.613 219.632 140.458C221.171 139.261 222.197 137.679 222.71 135.713V130.39C222.24 128.594 221.193 127.119 219.568 125.965C217.986 124.81 216.126 124.233 213.988 124.233C212.449 124.233 211.017 124.618 209.692 125.387C208.366 126.114 207.297 127.162 206.485 128.53C205.715 129.855 205.331 131.394 205.331 133.147C205.331 134.815 205.715 136.333 206.485 137.701C207.297 139.069 208.366 140.159 209.692 140.972C211.017 141.784 212.449 142.19 213.988 142.19ZM239.363 120.193H245.84V147H239.363V120.193ZM239.042 110.573C239.042 109.589 239.427 108.756 240.197 108.072C241.009 107.388 241.885 107.045 242.826 107.045C243.767 107.045 244.622 107.388 245.391 108.072C246.161 108.756 246.546 109.589 246.546 110.573C246.546 111.642 246.161 112.497 245.391 113.138C244.622 113.779 243.767 114.1 242.826 114.1C241.885 114.1 241.009 113.779 240.197 113.138C239.427 112.497 239.042 111.642 239.042 110.573ZM267.183 147.641C264.66 147.641 262.373 147.107 260.321 146.038C258.268 144.969 256.644 143.409 255.447 141.356C254.249 139.261 253.651 136.675 253.651 133.596C253.651 130.603 254.271 128.038 255.511 125.9C256.793 123.72 258.461 122.052 260.513 120.898C262.608 119.701 264.874 119.102 267.311 119.102C269.876 119.102 271.993 119.637 273.66 120.706C275.328 121.775 276.61 123.057 277.508 124.554L277.123 125.58L277.765 120.193H283.729V147H277.252V140.202L277.893 141.805C277.722 142.147 277.358 142.639 276.803 143.28C276.247 143.922 275.52 144.584 274.622 145.268C273.724 145.91 272.634 146.466 271.351 146.936C270.112 147.406 268.722 147.641 267.183 147.641ZM268.914 142.318C271.052 142.318 272.848 141.763 274.302 140.651C275.798 139.497 276.781 137.936 277.252 135.969V130.454C276.739 128.701 275.691 127.247 274.109 126.093C272.57 124.938 270.774 124.361 268.722 124.361C267.183 124.361 265.772 124.746 264.489 125.516C263.207 126.242 262.18 127.29 261.411 128.658C260.641 129.984 260.256 131.523 260.256 133.276C260.256 134.986 260.641 136.525 261.411 137.893C262.223 139.261 263.292 140.352 264.618 141.164C265.943 141.934 267.375 142.318 268.914 142.318Z" fill="#FCFCFC" fill-opacity="0.98"/>
<path d="M159.998 19.4527C160.708 19.2161 161.655 19.2161 162.601 19.2161C169.699 19.2161 175.614 25.1311 175.614 32.2291C175.614 39.327 169.699 45.242 162.601 45.242L163.784 66.536H125.928L127.111 45.242C120.013 45.242 114.098 39.327 114.098 32.2291C114.098 25.1311 120.013 19.2161 127.111 19.2161C128.057 19.2161 129.004 19.2161 129.714 19.4527" stroke="#FCFCFC" stroke-opacity="0.98" stroke-width="4.732" stroke-miterlimit="10" stroke-linecap="round" stroke-linejoin="round"/>
<path d="M161.418 26.3141C161.418 17.0867 154.083 9.75208 144.856 9.75208C135.629 9.75208 128.294 17.0867 128.294 26.3141" stroke="#FCFCFC" stroke-opacity="0.98" stroke-width="4.732" stroke-miterlimit="10" stroke-linecap="round" stroke-linejoin="round"/>
<path d="M144.856 49.9741V57.0721" stroke="#FCFCFC" stroke-opacity="0.98" stroke-width="4.732" stroke-miterlimit="10" stroke-linecap="round" stroke-linejoin="round"/>
<path d="M136.575 49.9741L135.392 56.3623" stroke="#FCFCFC" stroke-opacity="0.98" stroke-width="4.732" stroke-miterlimit="10" stroke-linecap="round" stroke-linejoin="round"/>
<path d="M153.137 49.9741L154.32 56.3623" stroke="#FCFCFC" stroke-opacity="0.98" stroke-width="4.732" stroke-miterlimit="10" stroke-linecap="round" stroke-linejoin="round"/>
</svg>
