<svg width="55" height="38" viewBox="0 0 55 38" fill="none" xmlns="http://www.w3.org/2000/svg">
<path d="M19.5938 0.34375C19.4984 0.34375 19.407 0.379966 19.3396 0.44443C19.2722 0.508896 19.2344 0.596333 19.2344 0.6875V4.46875C19.2341 4.65102 19.1583 4.82573 19.0236 4.95464C18.8888 5.0835 18.7062 5.15599 18.5156 5.15625V0.6875C18.5156 0.596333 18.4778 0.508896 18.4104 0.44443C18.343 0.379966 18.2516 0.34375 18.1562 0.34375C18.0609 0.34375 17.9695 0.379966 17.9021 0.44443C17.8347 0.508896 17.7969 0.596333 17.7969 0.6875V5.15625C17.6063 5.15599 17.4237 5.0835 17.2889 4.95464C17.1542 4.82573 17.0784 4.65102 17.0781 4.46875V0.6875C17.0781 0.596333 17.0403 0.508896 16.9729 0.44443C16.9055 0.379966 16.8141 0.34375 16.7188 0.34375C16.6234 0.34375 16.532 0.379966 16.4646 0.44443C16.3972 0.508896 16.3594 0.596333 16.3594 0.6875V4.46875C16.3598 4.8333 16.5114 5.1828 16.7809 5.44057C17.0504 5.69834 17.4158 5.84332 17.7969 5.84375V11.0434C17.4885 11.12 17.2154 11.2923 17.0203 11.5332C16.8252 11.7742 16.7191 12.0702 16.7188 12.375V20.2813C16.7188 20.6459 16.8702 20.9957 17.1398 21.2535C17.4094 21.5114 17.775 21.6563 18.1562 21.6563C18.5375 21.6563 18.9031 21.5114 19.1727 21.2535C19.4423 20.9957 19.5938 20.6459 19.5938 20.2813V12.375C19.5934 12.0702 19.4873 11.7742 19.2922 11.5332C19.0971 11.2923 18.824 11.12 18.5156 11.0434V5.84375C18.8967 5.84332 19.2621 5.69834 19.5316 5.44057C19.8011 5.1828 19.9527 4.8333 19.9531 4.46875V0.6875C19.9531 0.596333 19.9153 0.508896 19.8479 0.44443C19.7805 0.379966 19.6891 0.34375 19.5938 0.34375ZM18.875 12.375V20.2813C18.875 20.4636 18.7993 20.6385 18.6645 20.7674C18.5297 20.8963 18.3469 20.9688 18.1562 20.9688C17.9656 20.9688 17.7828 20.8963 17.648 20.7674C17.5132 20.6385 17.4375 20.4636 17.4375 20.2813V12.375C17.4375 12.1927 17.5132 12.0178 17.648 11.8889C17.7828 11.7599 17.9656 11.6875 18.1562 11.6875C18.3469 11.6875 18.5297 11.7599 18.6645 11.8889C18.7993 12.0178 18.875 12.1927 18.875 12.375Z" fill="#BABABA"/>
<path d="M27.5 4.125C23.537 4.125 20.3125 7.2093 20.3125 11C20.3125 14.7907 23.537 17.875 27.5 17.875C31.463 17.875 34.6875 14.7907 34.6875 11C34.6875 7.2093 31.463 4.125 27.5 4.125ZM27.5 17.1875C23.9332 17.1875 21.0312 14.4117 21.0312 11C21.0312 7.58828 23.9332 4.8125 27.5 4.8125C31.0668 4.8125 33.9688 7.58828 33.9688 11C33.9688 14.4117 31.0668 17.1875 27.5 17.1875Z" fill="#BABABA"/>
<path d="M27.5 7.5625C26.7893 7.5625 26.0944 7.76411 25.5034 8.1418C24.9124 8.51954 24.4518 9.05639 24.1798 9.68451C23.9078 10.3126 23.8366 11.0038 23.9753 11.6706C24.114 12.3374 24.4562 12.9499 24.9589 13.4307C25.4615 13.9114 26.1018 14.2388 26.7989 14.3715C27.496 14.5041 28.2186 14.436 28.8753 14.1758C29.532 13.9156 30.0932 13.4751 30.4881 12.9098C30.883 12.3445 31.0938 11.6799 31.0938 11C31.0927 10.0886 30.7137 9.21491 30.04 8.57046C29.3662 7.92602 28.4528 7.56353 27.5 7.5625ZM27.5 13.75C26.9314 13.75 26.3755 13.5887 25.9028 13.2865C25.43 12.9844 25.0615 12.5549 24.8439 12.0524C24.6263 11.5499 24.5693 10.9969 24.6803 10.4635C24.7912 9.93004 25.065 9.44006 25.4671 9.05545C25.8692 8.67088 26.3814 8.40894 26.9391 8.30285C27.4968 8.19672 28.0749 8.2512 28.6002 8.45934C29.1255 8.66748 29.5746 9.01996 29.8905 9.4722C30.2064 9.92441 30.375 10.4561 30.375 11C30.3742 11.7291 30.071 12.4281 29.532 12.9436C28.993 13.4592 28.2622 13.7492 27.5 13.75Z" fill="#BABABA"/>
<path d="M27.5 6.1875C27.5953 6.1875 27.6867 6.15128 27.7541 6.08682C27.8215 6.02237 27.8594 5.93493 27.8594 5.84375C27.8594 5.75257 27.8215 5.66513 27.7541 5.60068C27.6867 5.53622 27.5953 5.5 27.5 5.5C25.9755 5.50163 24.514 6.08163 23.4361 7.11275C22.3581 8.14382 21.7517 9.54181 21.75 11C21.75 11.0912 21.7879 11.1786 21.8553 11.2431C21.9226 11.3075 22.0141 11.3438 22.1094 11.3438C22.2047 11.3438 22.2961 11.3075 22.3635 11.2431C22.4309 11.1786 22.4688 11.0912 22.4688 11C22.4703 9.72409 23.0008 8.50085 23.944 7.59864C24.8873 6.69642 26.1661 6.18896 27.5 6.1875Z" fill="#BABABA"/>
<path d="M37.5625 11.1852V0.687493C37.5625 0.635261 37.5501 0.583715 37.5261 0.536776C37.5021 0.489833 37.4673 0.448729 37.4243 0.416588C37.3812 0.384446 37.3311 0.362108 37.2777 0.351273C37.2242 0.340438 37.1689 0.34139 37.116 0.354056L36.7674 0.437415C36.3784 0.529979 36.0331 0.744436 35.7864 1.0466C35.5397 1.34876 35.4059 1.72122 35.4063 2.1046V9.96874C35.4062 10.2119 35.4602 10.4523 35.5646 10.6739C35.6691 10.8956 35.8217 11.0934 36.0122 11.2544C35.8251 11.3813 35.6724 11.5493 35.5669 11.7443C35.4615 11.9392 35.4064 12.1555 35.4063 12.375V20.2812C35.4063 20.6459 35.5577 20.9956 35.8273 21.2535C36.0969 21.5114 36.4625 21.6562 36.8438 21.6562C37.225 21.6562 37.5906 21.5114 37.8602 21.2535C38.1298 20.9956 38.2812 20.6459 38.2812 20.2812V12.375C38.2811 12.1338 38.2146 11.8969 38.0885 11.688C37.9623 11.4792 37.7809 11.3058 37.5625 11.1852ZM36.125 2.1046C36.1247 1.89132 36.1937 1.68322 36.3225 1.5091C36.4513 1.33497 36.6334 1.20342 36.8438 1.13265V10.9411C36.6337 10.8698 36.4519 10.7381 36.3232 10.5639C36.1945 10.3899 36.1253 10.182 36.125 9.96874V2.1046ZM37.5625 20.2812C37.5625 20.4636 37.4868 20.6384 37.352 20.7674C37.2172 20.8963 37.0344 20.9687 36.8438 20.9687C36.6531 20.9687 36.4703 20.8963 36.3355 20.7674C36.2007 20.6384 36.125 20.4636 36.125 20.2812V12.375C36.125 12.1927 36.2007 12.0178 36.3355 11.8888C36.4703 11.7599 36.6531 11.6875 36.8438 11.6875C37.0344 11.6875 37.2172 11.7599 37.352 11.8888C37.4868 12.0178 37.5625 12.1927 37.5625 12.375V20.2812Z" fill="#BABABA"/>
<path d="M7.196 28.7029C6.87867 28.5815 6.58 28.4835 6.3 28.4089C6.02 28.3342 5.642 28.2969 5.166 28.2969C4.23267 28.3062 3.49067 28.6842 2.94 29.4309C2.39867 30.1775 2.128 31.1482 2.128 32.3429C2.128 33.4255 2.35667 34.3589 2.814 35.1429C3.28067 35.9175 4.02267 36.3049 5.04 36.3049C5.516 36.3049 5.91733 36.2629 6.244 36.1789C6.58 36.0949 6.87867 35.9922 7.14 35.8709L7.56 36.7109C7.27067 36.8602 6.88333 36.9862 6.398 37.0889C5.922 37.2009 5.488 37.2569 5.096 37.2569C3.63067 37.2569 2.576 36.7715 1.932 35.8009C1.288 34.8209 0.966 33.6729 0.966 32.3569C0.966 30.9475 1.32067 29.7622 2.03 28.8009C2.74867 27.8302 3.794 27.3449 5.166 27.3449C5.45533 27.3449 5.84733 27.3869 6.342 27.4709C6.846 27.5549 7.24733 27.6949 7.546 27.8909L7.196 28.7029ZM12.0632 37.2429C11.0645 37.2335 10.3132 36.8929 9.80919 36.2209C9.30519 35.5489 9.05319 34.6855 9.05319 33.6309C9.06252 32.6042 9.33785 31.7595 9.87919 31.0969C10.4205 30.4342 11.1952 30.0982 12.2032 30.0889C13.2299 30.0889 13.9952 30.4295 14.4992 31.1109C15.0125 31.7922 15.2692 32.6602 15.2692 33.7149C15.2599 34.7509 14.9752 35.6002 14.4152 36.2629C13.8552 36.9162 13.0712 37.2429 12.0632 37.2429ZM14.1632 33.7149C14.1632 32.9402 14.0139 32.3009 13.7152 31.7969C13.4259 31.2929 12.9312 31.0409 12.2312 31.0409C11.5405 31.0409 11.0272 31.2835 10.6912 31.7689C10.3645 32.2449 10.1965 32.8609 10.1872 33.6169C10.1872 34.4102 10.3272 35.0542 10.6072 35.5489C10.8872 36.0435 11.3772 36.2909 12.0772 36.2909C12.7772 36.2909 13.2952 36.0575 13.6312 35.5909C13.9765 35.1242 14.1539 34.4989 14.1632 33.7149ZM22.2828 31.1809C22.5721 30.8729 22.9361 30.6115 23.3748 30.3969C23.8134 30.1822 24.2334 30.0749 24.6348 30.0749C25.4188 30.0749 25.9974 30.3035 26.3708 30.7609C26.7441 31.2089 26.9308 31.7735 26.9308 32.4549V37.0469H25.8108V32.6089C25.8108 32.1515 25.6988 31.7735 25.4748 31.4749C25.2508 31.1762 24.9054 31.0222 24.4388 31.0129C24.1401 31.0129 23.8181 31.0969 23.4728 31.2649C23.1368 31.4329 22.8194 31.6709 22.5208 31.9789C22.5301 32.0629 22.5348 32.1469 22.5348 32.2309C22.5441 32.3055 22.5488 32.3802 22.5488 32.4549V37.0469H21.4288V32.6089C21.4288 32.1515 21.3168 31.7735 21.0928 31.4749C20.8781 31.1762 20.5421 31.0222 20.0847 31.0129C19.7768 31.0129 19.4548 31.0969 19.1188 31.2649C18.7828 31.4235 18.4654 31.6615 18.1668 31.9789V37.0609H17.0608V30.2709H17.7328L18.0548 31.0409C18.3534 30.7609 18.7034 30.5322 19.1048 30.3549C19.5061 30.1682 19.8934 30.0749 20.2668 30.0749C20.7708 30.0749 21.1908 30.1775 21.5268 30.3829C21.8721 30.5789 22.1241 30.8449 22.2828 31.1809ZM29.6113 28.9269C29.3966 28.9269 29.2193 28.8569 29.0793 28.7169C28.9393 28.5675 28.8693 28.3855 28.8693 28.1709C28.86 27.9655 28.9253 27.7929 29.0653 27.6529C29.2146 27.5035 29.3966 27.4289 29.6113 27.4289C29.8166 27.4289 29.994 27.5035 30.1433 27.6529C30.302 27.7929 30.3813 27.9655 30.3813 28.1709C30.3813 28.3855 30.302 28.5675 30.1433 28.7169C29.994 28.8569 29.8166 28.9269 29.6113 28.9269ZM29.0653 37.0609V30.2709H30.1853V37.0609H29.0653ZM35.1173 31.0129C34.3799 31.0129 33.8573 31.2742 33.5493 31.7969C33.2506 32.3102 33.1013 32.9309 33.1013 33.6589C33.1013 34.4149 33.2506 35.0449 33.5493 35.5489C33.8479 36.0435 34.3706 36.2909 35.1173 36.2909C35.3786 36.2909 35.6586 36.2302 35.9573 36.1089C36.2559 35.9782 36.5359 35.7962 36.7973 35.5629V31.7549C36.5359 31.5215 36.2559 31.3395 35.9573 31.2089C35.6586 31.0782 35.3786 31.0129 35.1173 31.0129ZM37.9173 27.1909V37.0609H37.2593L36.9653 36.4449C36.6759 36.6782 36.3446 36.8695 35.9713 37.0189C35.6073 37.1682 35.2573 37.2429 34.9213 37.2429C33.9319 37.2429 33.1899 36.9069 32.6953 36.2349C32.2099 35.5535 31.9673 34.6995 31.9673 33.6729C31.9673 32.6275 32.2146 31.7689 32.7093 31.0969C33.2133 30.4155 33.9599 30.0749 34.9493 30.0749C35.2386 30.0749 35.5513 30.1402 35.8873 30.2709C36.2233 30.3922 36.5266 30.5555 36.7973 30.7609V27.3169L37.9173 27.1909ZM40.7692 35.1289C40.7692 35.4182 40.8672 35.6935 41.0632 35.9549C41.2685 36.2162 41.5952 36.3469 42.0432 36.3469C42.4352 36.3469 42.7945 36.2489 43.1212 36.0529C43.4479 35.8569 43.7279 35.6235 43.9612 35.3529V33.7989H42.1692C41.7119 33.7989 41.3619 33.9342 41.1192 34.2049C40.8859 34.4662 40.7692 34.7742 40.7692 35.1289ZM40.1812 30.6909C40.4425 30.5135 40.8112 30.3689 41.2872 30.2569C41.7632 30.1449 42.1412 30.0889 42.4212 30.0889C43.2052 30.0889 43.8399 30.3035 44.3252 30.7329C44.8199 31.1529 45.0672 31.7035 45.0672 32.3849V37.0609H44.3952L44.1012 36.3749C43.8679 36.5895 43.5645 36.7855 43.1912 36.9629C42.8179 37.1402 42.4445 37.2289 42.0712 37.2289C41.2872 37.2289 40.7039 37.0329 40.3212 36.6409C39.9385 36.2395 39.7472 35.7355 39.7472 35.1289C39.7472 34.4569 39.9712 33.9482 40.4192 33.6029C40.8765 33.2482 41.4692 33.0709 42.1972 33.0709H43.9472C43.9472 32.5109 43.8585 32.0349 43.6812 31.6429C43.5039 31.2509 43.0979 31.0549 42.4632 31.0549C42.0059 31.0549 41.6279 31.1062 41.3292 31.2089C41.0305 31.3115 40.7552 31.4189 40.5032 31.5309C40.4565 31.3909 40.4052 31.2509 40.3492 31.1109C40.2932 30.9709 40.2372 30.8309 40.1812 30.6909ZM51.0439 31.5029C50.8199 31.3909 50.5632 31.2835 50.2739 31.1809C49.9846 31.0782 49.6392 31.0269 49.2379 31.0269C48.8272 31.0269 48.4959 31.1109 48.2439 31.2789C48.0012 31.4469 47.8799 31.6755 47.8799 31.9649C47.8799 32.2262 48.0199 32.4502 48.2999 32.6369C48.5892 32.8142 48.9579 32.9775 49.4059 33.1269C49.9566 33.3229 50.4699 33.5889 50.9459 33.9249C51.4312 34.2609 51.6739 34.7089 51.6739 35.2689C51.6739 35.8849 51.4406 36.3702 50.9739 36.7249C50.5166 37.0702 49.8446 37.2429 48.9579 37.2429C48.6686 37.2429 48.3046 37.1915 47.8659 37.0889C47.4272 36.9955 47.0679 36.8555 46.7879 36.6689L47.1239 35.8289C47.3852 35.9595 47.6746 36.0715 47.9919 36.1649C48.3186 36.2582 48.6452 36.3049 48.9719 36.3049C49.4759 36.3049 49.8679 36.2255 50.1479 36.0669C50.4279 35.9082 50.5679 35.6655 50.5679 35.3389C50.5679 35.0495 50.4139 34.7975 50.1059 34.5829C49.7979 34.3589 49.4152 34.1722 48.9579 34.0229C48.4259 33.8455 47.9219 33.6029 47.4459 33.2949C46.9792 32.9775 46.7459 32.5529 46.7459 32.0209C46.7459 31.4142 46.9699 30.9429 47.4179 30.6069C47.8752 30.2615 48.4912 30.0889 49.2659 30.0889C49.5552 30.0889 49.9146 30.1449 50.3439 30.2569C50.7732 30.3595 51.1186 30.5042 51.3799 30.6909L51.0439 31.5029Z" fill="#BABABA"/>
</svg>
