<svg width="55" height="39" viewBox="0 0 55 39" fill="none" xmlns="http://www.w3.org/2000/svg">
<g clip-path="url(#clip0_250_297)">
<path d="M17.5938 0.343765C17.4984 0.343765 17.407 0.379981 17.3396 0.444445C17.2722 0.508911 17.2344 0.596348 17.2344 0.687515V4.46877C17.2341 4.65104 17.1583 4.82575 17.0236 4.95466C16.8888 5.08352 16.7062 5.15601 16.5156 5.15627V0.687515C16.5156 0.596348 16.4778 0.508911 16.4104 0.444445C16.343 0.379981 16.2516 0.343765 16.1562 0.343765C16.0609 0.343765 15.9695 0.379981 15.9021 0.444445C15.8347 0.508911 15.7969 0.596348 15.7969 0.687515V5.15627C15.6063 5.15601 15.4237 5.08352 15.2889 4.95466C15.1542 4.82575 15.0784 4.65104 15.0781 4.46877V0.687515C15.0781 0.596348 15.0403 0.508911 14.9729 0.444445C14.9055 0.379981 14.8141 0.343765 14.7188 0.343765C14.6234 0.343765 14.532 0.379981 14.4646 0.444445C14.3972 0.508911 14.3594 0.596348 14.3594 0.687515V4.46877C14.3598 4.83331 14.5114 5.18282 14.7809 5.44059C15.0504 5.69836 15.4158 5.84334 15.7969 5.84377V11.0434C15.4885 11.12 15.2154 11.2923 15.0203 11.5333C14.8252 11.7742 14.7191 12.0702 14.7188 12.375V20.2813C14.7188 20.6459 14.8702 20.9957 15.1398 21.2535C15.4094 21.5114 15.775 21.6563 16.1562 21.6563C16.5375 21.6563 16.9031 21.5114 17.1727 21.2535C17.4423 20.9957 17.5938 20.6459 17.5938 20.2813V12.375C17.5934 12.0702 17.4873 11.7742 17.2922 11.5333C17.0971 11.2923 16.824 11.12 16.5156 11.0434V5.84377C16.8967 5.84334 17.2621 5.69836 17.5316 5.44059C17.8011 5.18282 17.9527 4.83331 17.9531 4.46877V0.687515C17.9531 0.596348 17.9153 0.508911 17.8479 0.444445C17.7805 0.379981 17.6891 0.343765 17.5938 0.343765ZM16.875 12.375V20.2813C16.875 20.4636 16.7993 20.6385 16.6645 20.7674C16.5297 20.8963 16.3469 20.9688 16.1562 20.9688C15.9656 20.9688 15.7828 20.8963 15.648 20.7674C15.5132 20.6385 15.4375 20.4636 15.4375 20.2813V12.375C15.4375 12.1927 15.5132 12.0178 15.648 11.8889C15.7828 11.76 15.9656 11.6875 16.1562 11.6875C16.3469 11.6875 16.5297 11.76 16.6645 11.8889C16.7993 12.0178 16.875 12.1927 16.875 12.375Z" fill="#FD8061"/>
<path d="M25.5 4.12502C21.537 4.12502 18.3125 7.20931 18.3125 11C18.3125 14.7907 21.537 17.875 25.5 17.875C29.463 17.875 32.6875 14.7907 32.6875 11C32.6875 7.20931 29.463 4.12502 25.5 4.12502ZM25.5 17.1875C21.9332 17.1875 19.0312 14.4117 19.0312 11C19.0312 7.5883 21.9332 4.81252 25.5 4.81252C29.0668 4.81252 31.9688 7.5883 31.9688 11C31.9688 14.4117 29.0668 17.1875 25.5 17.1875Z" fill="#FD8061"/>
<path d="M25.5 7.56252C24.7892 7.56252 24.0944 7.76412 23.5034 8.14182C22.9124 8.51956 22.4518 9.05641 22.1798 9.68453C21.9078 10.3126 21.8366 11.0038 21.9753 11.6706C22.114 12.3375 22.4562 12.9499 22.9589 13.4307C23.4614 13.9114 24.1018 14.2388 24.7989 14.3715C25.496 14.5041 26.2186 14.436 26.8753 14.1758C27.5319 13.9157 28.0932 13.4751 28.4881 12.9098C28.883 12.3445 29.0937 11.6799 29.0937 11C29.0927 10.0886 28.7137 9.21492 28.04 8.57048C27.3662 7.92603 26.4528 7.56355 25.5 7.56252ZM25.5 13.75C24.9314 13.75 24.3755 13.5887 23.9028 13.2866C23.43 12.9844 23.0615 12.5549 22.8439 12.0524C22.6263 11.5499 22.5693 10.997 22.6803 10.4635C22.7912 9.93005 23.065 9.44008 23.4671 9.05546C23.8692 8.67089 24.3814 8.40896 24.9391 8.30287C25.4968 8.19673 26.0749 8.25122 26.6002 8.45936C27.1255 8.6675 27.5746 9.01997 27.8905 9.47222C28.2064 9.92442 28.375 10.4561 28.375 11C28.3741 11.7291 28.071 12.4281 27.532 12.9437C26.993 13.4592 26.2622 13.7492 25.5 13.75Z" fill="#FD8061"/>
<path d="M25.5 6.18752C25.5953 6.18752 25.6867 6.15129 25.7541 6.08684C25.8215 6.02239 25.8594 5.93494 25.8594 5.84377C25.8594 5.75259 25.8215 5.66514 25.7541 5.60069C25.6867 5.53624 25.5953 5.50002 25.5 5.50002C23.9755 5.50165 22.514 6.08164 21.4361 7.11276C20.3581 8.14384 19.7517 9.54183 19.75 11C19.75 11.0912 19.7879 11.1786 19.8553 11.2431C19.9226 11.3075 20.0141 11.3438 20.1094 11.3438C20.2047 11.3438 20.2961 11.3075 20.3635 11.2431C20.4309 11.1786 20.4688 11.0912 20.4688 11C20.4703 9.7241 21.0008 8.50087 21.944 7.59865C22.8873 6.69644 24.1661 6.18898 25.5 6.18752Z" fill="#FD8061"/>
<path d="M35.5625 11.1852V0.687509C35.5625 0.635276 35.5501 0.583731 35.5261 0.536791C35.5021 0.489848 35.4673 0.448744 35.4243 0.416604C35.3812 0.384461 35.3311 0.362124 35.2777 0.351288C35.2242 0.340453 35.1689 0.341405 35.116 0.354072L34.7674 0.437431C34.3784 0.529994 34.0331 0.744451 33.7864 1.04661C33.5397 1.34877 33.4059 1.72124 33.4063 2.10462V9.96876C33.4062 10.2119 33.4602 10.4523 33.5646 10.6739C33.6691 10.8956 33.8217 11.0935 34.0122 11.2544C33.8251 11.3814 33.6724 11.5493 33.5669 11.7443C33.4615 11.9393 33.4064 12.1555 33.4063 12.375V20.2813C33.4063 20.6459 33.5577 20.9957 33.8273 21.2535C34.0969 21.5114 34.4625 21.6563 34.8438 21.6563C35.225 21.6563 35.5906 21.5114 35.8602 21.2535C36.1298 20.9957 36.2812 20.6459 36.2812 20.2813V12.375C36.2811 12.1338 36.2146 11.8969 36.0885 11.688C35.9623 11.4792 35.7809 11.3058 35.5625 11.1852ZM34.125 2.10462C34.1247 1.89133 34.1937 1.68324 34.3225 1.50911C34.4513 1.33499 34.6334 1.20344 34.8438 1.13266V10.9411C34.6337 10.8698 34.4519 10.7381 34.3232 10.564C34.1945 10.3899 34.1253 10.182 34.125 9.96876V2.10462ZM35.5625 20.2813C35.5625 20.4636 35.4868 20.6385 35.352 20.7674C35.2172 20.8963 35.0344 20.9688 34.8438 20.9688C34.6531 20.9688 34.4703 20.8963 34.3355 20.7674C34.2007 20.6385 34.125 20.4636 34.125 20.2813V12.375C34.125 12.1927 34.2007 12.0178 34.3355 11.8889C34.4703 11.76 34.6531 11.6875 34.8438 11.6875C35.0344 11.6875 35.2172 11.76 35.352 11.8889C35.4868 12.0178 35.5625 12.1927 35.5625 12.375V20.2813Z" fill="#FD8061"/>
</g>
<path d="M7.196 29.7029C6.87867 29.5815 6.58 29.4835 6.3 29.4089C6.02 29.3342 5.642 29.2969 5.166 29.2969C4.23267 29.3062 3.49067 29.6842 2.94 30.4309C2.39867 31.1775 2.128 32.1482 2.128 33.3429C2.128 34.4255 2.35667 35.3589 2.814 36.1429C3.28067 36.9175 4.02267 37.3049 5.04 37.3049C5.516 37.3049 5.91733 37.2629 6.244 37.1789C6.58 37.0949 6.87867 36.9922 7.14 36.8709L7.56 37.7109C7.27067 37.8602 6.88333 37.9862 6.398 38.0889C5.922 38.2009 5.488 38.2569 5.096 38.2569C3.63067 38.2569 2.576 37.7715 1.932 36.8009C1.288 35.8209 0.966 34.6729 0.966 33.3569C0.966 31.9475 1.32067 30.7622 2.03 29.8009C2.74867 28.8302 3.794 28.3449 5.166 28.3449C5.45533 28.3449 5.84733 28.3869 6.342 28.4709C6.846 28.5549 7.24733 28.6949 7.546 28.8909L7.196 29.7029ZM12.0632 38.2429C11.0645 38.2335 10.3132 37.8929 9.80919 37.2209C9.30519 36.5489 9.05319 35.6855 9.05319 34.6309C9.06252 33.6042 9.33785 32.7595 9.87919 32.0969C10.4205 31.4342 11.1952 31.0982 12.2032 31.0889C13.2299 31.0889 13.9952 31.4295 14.4992 32.1109C15.0125 32.7922 15.2692 33.6602 15.2692 34.7149C15.2599 35.7509 14.9752 36.6002 14.4152 37.2629C13.8552 37.9162 13.0712 38.2429 12.0632 38.2429ZM14.1632 34.7149C14.1632 33.9402 14.0139 33.3009 13.7152 32.7969C13.4259 32.2929 12.9312 32.0409 12.2312 32.0409C11.5405 32.0409 11.0272 32.2835 10.6912 32.7689C10.3645 33.2449 10.1965 33.8609 10.1872 34.6169C10.1872 35.4102 10.3272 36.0542 10.6072 36.5489C10.8872 37.0435 11.3772 37.2909 12.0772 37.2909C12.7772 37.2909 13.2952 37.0575 13.6312 36.5909C13.9765 36.1242 14.1539 35.4989 14.1632 34.7149ZM22.2828 32.1809C22.5721 31.8729 22.9361 31.6115 23.3748 31.3969C23.8134 31.1822 24.2334 31.0749 24.6348 31.0749C25.4188 31.0749 25.9974 31.3035 26.3708 31.7609C26.7441 32.2089 26.9308 32.7735 26.9308 33.4549V38.0469H25.8108V33.6089C25.8108 33.1515 25.6988 32.7735 25.4748 32.4749C25.2508 32.1762 24.9054 32.0222 24.4388 32.0129C24.1401 32.0129 23.8181 32.0969 23.4728 32.2649C23.1368 32.4329 22.8194 32.6709 22.5208 32.9789C22.5301 33.0629 22.5348 33.1469 22.5348 33.2309C22.5441 33.3055 22.5488 33.3802 22.5488 33.4549V38.0469H21.4288V33.6089C21.4288 33.1515 21.3168 32.7735 21.0928 32.4749C20.8781 32.1762 20.5421 32.0222 20.0847 32.0129C19.7768 32.0129 19.4548 32.0969 19.1188 32.2649C18.7828 32.4235 18.4654 32.6615 18.1668 32.9789V38.0609H17.0608V31.2709H17.7328L18.0548 32.0409C18.3534 31.7609 18.7034 31.5322 19.1048 31.3549C19.5061 31.1682 19.8934 31.0749 20.2668 31.0749C20.7708 31.0749 21.1908 31.1775 21.5268 31.3829C21.8721 31.5789 22.1241 31.8449 22.2828 32.1809ZM29.6113 29.9269C29.3966 29.9269 29.2193 29.8569 29.0793 29.7169C28.9393 29.5675 28.8693 29.3855 28.8693 29.1709C28.86 28.9655 28.9253 28.7929 29.0653 28.6529C29.2146 28.5035 29.3966 28.4289 29.6113 28.4289C29.8166 28.4289 29.994 28.5035 30.1433 28.6529C30.302 28.7929 30.3813 28.9655 30.3813 29.1709C30.3813 29.3855 30.302 29.5675 30.1433 29.7169C29.994 29.8569 29.8166 29.9269 29.6113 29.9269ZM29.0653 38.0609V31.2709H30.1853V38.0609H29.0653ZM35.1173 32.0129C34.3799 32.0129 33.8573 32.2742 33.5493 32.7969C33.2506 33.3102 33.1013 33.9309 33.1013 34.6589C33.1013 35.4149 33.2506 36.0449 33.5493 36.5489C33.8479 37.0435 34.3706 37.2909 35.1173 37.2909C35.3786 37.2909 35.6586 37.2302 35.9573 37.1089C36.2559 36.9782 36.5359 36.7962 36.7973 36.5629V32.7549C36.5359 32.5215 36.2559 32.3395 35.9573 32.2089C35.6586 32.0782 35.3786 32.0129 35.1173 32.0129ZM37.9173 28.1909V38.0609H37.2593L36.9653 37.4449C36.6759 37.6782 36.3446 37.8695 35.9713 38.0189C35.6073 38.1682 35.2573 38.2429 34.9213 38.2429C33.9319 38.2429 33.1899 37.9069 32.6953 37.2349C32.2099 36.5535 31.9673 35.6995 31.9673 34.6729C31.9673 33.6275 32.2146 32.7689 32.7093 32.0969C33.2133 31.4155 33.9599 31.0749 34.9493 31.0749C35.2386 31.0749 35.5513 31.1402 35.8873 31.2709C36.2233 31.3922 36.5266 31.5555 36.7973 31.7609V28.3169L37.9173 28.1909ZM40.7692 36.1289C40.7692 36.4182 40.8672 36.6935 41.0632 36.9549C41.2685 37.2162 41.5952 37.3469 42.0432 37.3469C42.4352 37.3469 42.7945 37.2489 43.1212 37.0529C43.4479 36.8569 43.7279 36.6235 43.9612 36.3529V34.7989H42.1692C41.7119 34.7989 41.3619 34.9342 41.1192 35.2049C40.8859 35.4662 40.7692 35.7742 40.7692 36.1289ZM40.1812 31.6909C40.4425 31.5135 40.8112 31.3689 41.2872 31.2569C41.7632 31.1449 42.1412 31.0889 42.4212 31.0889C43.2052 31.0889 43.8399 31.3035 44.3252 31.7329C44.8199 32.1529 45.0672 32.7035 45.0672 33.3849V38.0609H44.3952L44.1012 37.3749C43.8679 37.5895 43.5645 37.7855 43.1912 37.9629C42.8179 38.1402 42.4445 38.2289 42.0712 38.2289C41.2872 38.2289 40.7039 38.0329 40.3212 37.6409C39.9385 37.2395 39.7472 36.7355 39.7472 36.1289C39.7472 35.4569 39.9712 34.9482 40.4192 34.6029C40.8765 34.2482 41.4692 34.0709 42.1972 34.0709H43.9472C43.9472 33.5109 43.8585 33.0349 43.6812 32.6429C43.5039 32.2509 43.0979 32.0549 42.4632 32.0549C42.0059 32.0549 41.6279 32.1062 41.3292 32.2089C41.0305 32.3115 40.7552 32.4189 40.5032 32.5309C40.4565 32.3909 40.4052 32.2509 40.3492 32.1109C40.2932 31.9709 40.2372 31.8309 40.1812 31.6909ZM51.0439 32.5029C50.8199 32.3909 50.5632 32.2835 50.2739 32.1809C49.9846 32.0782 49.6392 32.0269 49.2379 32.0269C48.8272 32.0269 48.4959 32.1109 48.2439 32.2789C48.0012 32.4469 47.8799 32.6755 47.8799 32.9649C47.8799 33.2262 48.0199 33.4502 48.2999 33.6369C48.5892 33.8142 48.9579 33.9775 49.4059 34.1269C49.9566 34.3229 50.4699 34.5889 50.9459 34.9249C51.4312 35.2609 51.6739 35.7089 51.6739 36.2689C51.6739 36.8849 51.4406 37.3702 50.9739 37.7249C50.5166 38.0702 49.8446 38.2429 48.9579 38.2429C48.6686 38.2429 48.3046 38.1915 47.8659 38.0889C47.4272 37.9955 47.0679 37.8555 46.7879 37.6689L47.1239 36.8289C47.3852 36.9595 47.6746 37.0715 47.9919 37.1649C48.3186 37.2582 48.6452 37.3049 48.9719 37.3049C49.4759 37.3049 49.8679 37.2255 50.1479 37.0669C50.4279 36.9082 50.5679 36.6655 50.5679 36.3389C50.5679 36.0495 50.4139 35.7975 50.1059 35.5829C49.7979 35.3589 49.4152 35.1722 48.9579 35.0229C48.4259 34.8455 47.9219 34.6029 47.4459 34.2949C46.9792 33.9775 46.7459 33.5529 46.7459 33.0209C46.7459 32.4142 46.9699 31.9429 47.4179 31.6069C47.8752 31.2615 48.4912 31.0889 49.2659 31.0889C49.5552 31.0889 49.9146 31.1449 50.3439 31.2569C50.7732 31.3595 51.1186 31.5042 51.3799 31.6909L51.0439 32.5029Z" fill="#FD8061"/>
<defs>
<clipPath id="clip0_250_297">
<rect width="23" height="22" fill="white" transform="translate(14)"/>
</clipPath>
</defs>
</svg>
