<svg width="19" height="22" viewBox="0 0 17 20" fill="none" xmlns="http://www.w3.org/2000/svg">
<path d="M5.2981 7.61042C2.27849 8.11708 0 10.3038 0 12.9167V20H16.3333V12.9167C16.3333 10.3038 14.0548 8.11708 11.0352 7.61042C12.3832 6.86 13.2708 5.59625 13.2708 4.16667C13.2708 1.86917 10.981 0 8.16663 0C5.3522 0 3.06248 1.86917 3.06248 4.16667C3.06248 5.59625 3.95009 6.86 5.2981 7.61042ZM9.69787 8.33333C12.7935 8.33333 15.3124 10.3896 15.3124 12.9167V19.1667H1.02083V12.9167C1.02083 10.3896 3.53972 8.33333 6.63538 8.33333H9.69787ZM8.16663 0.833333C10.4181 0.833333 12.2499 2.32875 12.2499 4.16667C12.2499 6.00458 10.4181 7.5 8.16663 7.5C5.91519 7.5 4.08331 6.00458 4.08331 4.16667C4.08331 2.32875 5.91519 0.833333 8.16663 0.833333Z" fill="#FD8061"/>
</svg>
