<svg width="158" height="158" viewBox="0 0 158 158" fill="none" xmlns="http://www.w3.org/2000/svg">
<g opacity="0.75">
<path d="M135.781 96.3602H130.844V101.377H135.781V96.3602Z" fill="#BABABA"/>
<path d="M22.2188 74.023V140.719C22.2227 143.991 23.5244 147.129 25.8385 149.443C28.1525 151.757 31.2899 153.059 34.5625 153.062H130.844C132.153 153.062 133.409 152.542 134.335 151.616C135.261 150.69 135.781 149.435 135.781 148.125V106.314H130.844V128.375H41.9688V9.875H128.375C129.03 9.875 129.658 10.1351 130.121 10.5981C130.584 11.0611 130.844 11.689 130.844 12.3438V91.4228H135.781V12.3438C135.781 10.3795 135.001 8.49568 133.612 7.10674C132.223 5.7178 130.339 4.9375 128.375 4.9375H34.5625C31.2899 4.94142 28.1525 6.24318 25.8385 8.55723C23.5244 10.8713 22.2227 14.0087 22.2188 17.2812V69.125H27.1562V17.2812C27.1562 15.317 27.9365 13.4332 29.3255 12.0442C30.7144 10.6553 32.5982 9.875 34.5625 9.875H37.0312V128.375H34.5625C31.8827 128.384 29.2803 129.274 27.1562 130.908V74.023H22.2188ZM34.5625 133.312H130.844V138.25H37.0312V143.188H130.844V148.125H34.5625C32.5982 148.125 30.7144 147.345 29.3255 145.956C27.9365 144.567 27.1562 142.683 27.1562 140.719C27.1562 138.754 27.9365 136.871 29.3255 135.482C30.7144 134.093 32.5982 133.312 34.5625 133.312Z" fill="#BABABA"/>
<path d="M125.906 49.375C125.9 44.1388 123.817 39.1187 120.115 35.4161C116.412 31.7136 111.392 29.6309 106.156 29.625C105.946 29.625 105.734 29.625 105.519 29.6373C104.43 25.3954 101.961 21.6363 98.5007 18.952C95.0403 16.2677 90.7853 14.8109 86.4059 14.8109C82.0265 14.8109 77.7715 16.2677 74.3111 18.952C70.8508 21.6363 68.3817 25.3954 67.2928 29.6373C67.0781 29.625 66.8658 29.625 66.6559 29.625C61.8502 29.6222 57.2085 31.3729 53.6015 34.5486C49.9946 37.7243 47.6702 42.1068 47.0643 46.8742C46.4584 51.6416 47.6127 56.4663 50.3106 60.4433C53.0085 64.4203 57.0647 67.2763 61.7184 68.4757V91.3438C61.7184 91.9985 61.9785 92.6264 62.4415 93.0894C62.9045 93.5524 63.5324 93.8125 64.1872 93.8125H108.625C109.279 93.8125 109.907 93.5524 110.37 93.0894C110.833 92.6264 111.093 91.9985 111.093 91.3438V68.4757C115.328 67.379 119.078 64.9091 121.759 61.4528C124.439 57.9965 125.898 53.7488 125.906 49.375ZM66.6559 88.875V83.9375H106.156V88.875H66.6559ZM106.156 64.1875C103.167 64.1943 100.248 63.2891 97.7868 61.5928C97.5192 61.4092 97.218 61.28 96.9005 61.2128C96.583 61.1455 96.2553 61.1415 95.9362 61.2008C95.6171 61.2602 95.3128 61.3819 95.0407 61.5588C94.7686 61.7358 94.534 61.9646 94.3503 62.2323C94.1667 62.4999 94.0375 62.8011 93.9703 63.1186C93.903 63.4361 93.899 63.7638 93.9583 64.0829C94.0177 64.402 94.1393 64.7063 94.3163 64.9784C94.4933 65.2505 94.7221 65.4851 94.9898 65.6688C98.2739 67.9292 102.169 69.1348 106.156 69.125V79H66.6559V69.125C70.6691 69.1332 74.5882 67.9096 77.8838 65.6194C78.1503 65.4347 78.3778 65.1994 78.5533 64.9269C78.7289 64.6543 78.849 64.3498 78.9069 64.0308C78.9648 63.7119 78.9593 63.3846 78.8907 63.0677C78.8221 62.7509 78.6918 62.4506 78.5071 62.1841C78.3225 61.9176 78.0872 61.6901 77.8146 61.5145C77.5421 61.339 77.2376 61.2189 76.9186 61.161C76.5996 61.1031 76.2723 61.1086 75.9555 61.1772C75.6386 61.2458 75.3384 61.3761 75.0719 61.5608C73.0799 62.9623 70.7739 63.8524 68.3568 64.1527C65.9398 64.453 63.486 64.1543 61.2117 63.2829C58.9373 62.4114 56.9122 60.994 55.3146 59.1555C53.7171 57.317 52.5963 55.1138 52.0508 52.7401C51.5054 50.3664 51.5521 47.8949 52.1868 45.5435C52.8215 43.192 54.0248 41.0328 55.6907 39.256C57.3565 37.4791 59.4338 36.1392 61.7394 35.3544C64.0451 34.5695 66.5084 34.3637 68.9123 34.7551C69.2375 34.8052 69.5695 34.7898 69.8887 34.7099C70.2078 34.6299 70.5078 34.4869 70.7709 34.2893C71.0341 34.0918 71.255 33.8436 71.4209 33.5594C71.5867 33.2752 71.694 32.9607 71.7366 32.6344C72.1998 29.0714 73.9439 25.7988 76.6433 23.4276C79.3428 21.0564 82.8129 19.7487 86.4059 19.7487C89.9989 19.7487 93.4691 21.0564 96.1685 23.4276C98.8679 25.7988 100.612 29.0714 101.075 32.6344C101.118 32.9607 101.225 33.2752 101.391 33.5594C101.557 33.8436 101.778 34.0918 102.041 34.2893C102.304 34.4869 102.604 34.6299 102.923 34.7099C103.242 34.7898 103.574 34.8052 103.899 34.7551C105.924 34.4259 107.994 34.5206 109.98 35.0333C111.966 35.546 113.823 36.4654 115.435 37.7333C117.047 39.0013 118.378 40.5901 119.344 42.3993C120.31 44.2084 120.889 46.1984 121.046 48.2432C121.203 50.288 120.933 52.3431 120.255 54.2784C119.576 56.2136 118.503 57.9868 117.103 59.4856C115.703 60.9845 114.007 62.1763 112.123 62.9857C110.239 63.795 108.207 64.2043 106.156 64.1875Z" fill="#BABABA"/>
<path d="M106.156 103.688H66.6562V108.625H106.156V103.688Z" fill="#BABABA"/>
<path d="M116.031 113.562H56.7812V118.5H116.031V113.562Z" fill="#BABABA"/>
</g>
</svg>
