<svg width="18" height="20" viewBox="0 0 18 20" fill="none" xmlns="http://www.w3.org/2000/svg">
<g clip-path="url(#clip0_93_2551)">
<path fill-rule="evenodd" clip-rule="evenodd" d="M14.5602 14.08C13.8306 14.08 13.1778 14.38 12.6786 14.85L5.83376 10.7C5.88176 10.47 5.92016 10.24 5.92016 10C5.92016 9.76 5.88176 9.53 5.83376 9.3L12.6018 5.19C13.1202 5.69 13.8018 6 14.5602 6C16.1538 6 17.4402 4.66 17.4402 3C17.4402 1.34 16.1538 0 14.5602 0C12.9666 0 11.6802 1.34 11.6802 3C11.6802 3.24 11.7186 3.47 11.7666 3.7L4.99856 7.81C4.48016 7.31 3.79856 7 3.04016 7C1.44656 7 0.160156 8.34 0.160156 10C0.160156 11.66 1.44656 13 3.04016 13C3.79856 13 4.48016 12.69 4.99856 12.19L11.8338 16.35C11.7858 16.56 11.757 16.78 11.757 17C11.757 18.61 13.0146 19.92 14.5602 19.92C16.1058 19.92 17.3634 18.61 17.3634 17C17.3634 15.39 16.1058 14.08 14.5602 14.08Z" fill="#FFF"/>
</g>
<defs>
<clipPath id="clip0_93_2551">
<rect width="17.28" height="20" fill="white" transform="translate(0.160156)"/>
</clipPath>
</defs>
</svg>
